M48
; DRILL file {KiCad 9.0.3} date 2025-10-05T23:38:32+0200
; FORMAT={-:-/ absolute / inch / decimal}
; #@! TF.CreationDate,2025-10-05T23:38:32+02:00
; #@! TF.GenerationSoftware,Kicad,Pcbnew,9.0.3
; #@! TF.FileFunction,Plated,1,2,PTH
FMAT,2
INCH
; #@! TA.AperFunction,Plated,PTH,ViaDrill
T1C0.0118
; #@! TA.AperFunction,Plated,PTH,ComponentDrill
T2C0.0315
; #@! TA.AperFunction,Plated,PTH,ComponentDrill
T3C0.0394
; #@! TA.AperFunction,Plated,PTH,ComponentDrill
T4C0.1063
%
G90
G05
T1
X4.272Y-5.4561
X4.272Y-5.6135
X4.272Y-5.771
X4.272Y-5.9285
X4.272Y-6.086
X4.272Y-6.2435
X4.272Y-6.4009
X4.272Y-6.5584
X4.272Y-6.8734
X4.272Y-7.1883
X4.272Y-7.3458
X4.272Y-7.9757
X4.272Y-8.6057
X4.272Y-8.7631
X4.272Y-8.9206
X4.272Y-9.0781
X4.272Y-9.2356
X4.272Y-9.3931
X4.272Y-9.5506
X4.272Y-9.708
X4.272Y-9.8655
X4.272Y-10.023
X4.272Y-10.1805
X4.4295Y-5.6135
X4.4295Y-5.771
X4.4295Y-5.9285
X4.4295Y-6.086
X4.4295Y-6.2435
X4.4295Y-6.4009
X4.4295Y-6.5584
X4.4295Y-6.8734
X4.4295Y-7.1883
X4.4295Y-9.2356
X4.4295Y-9.3931
X4.4295Y-9.5506
X4.4295Y-9.708
X4.4295Y-9.8655
X4.4295Y-10.023
X4.587Y-5.4561
X4.587Y-5.6135
X4.587Y-5.771
X4.587Y-5.9285
X4.587Y-6.086
X4.587Y-6.2435
X4.587Y-7.1883
X4.587Y-9.3931
X4.587Y-9.5506
X4.587Y-9.708
X4.587Y-9.8655
X4.587Y-10.023
X4.587Y-10.1805
X4.7444Y-5.4561
X4.7444Y-5.6135
X4.7444Y-5.771
X4.7444Y-5.9285
X4.7444Y-6.086
X4.7444Y-6.2435
X4.7444Y-7.1883
X4.7444Y-9.3931
X4.7444Y-9.5506
X4.7444Y-9.708
X4.7444Y-9.8655
X4.7444Y-10.023
X4.7444Y-10.1805
X4.9019Y-5.4561
X4.9019Y-5.6135
X4.9019Y-5.771
X4.9019Y-5.9285
X4.9019Y-6.086
X4.9019Y-6.2435
X4.9019Y-7.1883
X4.9019Y-7.9757
X4.9019Y-8.6057
X4.9019Y-8.7631
X4.9019Y-9.3931
X4.9019Y-9.5506
X4.9019Y-9.708
X4.9019Y-9.8655
X4.9019Y-10.023
X4.9019Y-10.1805
X5.0594Y-5.4561
X5.0594Y-5.6135
X5.0594Y-5.9285
X5.0594Y-6.086
X5.0594Y-6.2435
X5.0594Y-6.4009
X5.0594Y-6.5584
X5.0594Y-7.1883
X5.0594Y-7.5033
X5.0594Y-7.6608
X5.0594Y-8.1332
X5.0594Y-8.4482
X5.0594Y-9.3931
X5.0594Y-9.5506
X5.0594Y-9.708
X5.0594Y-9.8655
X5.0594Y-10.023
X5.0594Y-10.1805
X5.2169Y-5.6135
X5.2169Y-5.9285
X5.2169Y-9.708
X5.2169Y-9.8655
X5.2169Y-10.023
X5.3744Y-5.4561
X5.3744Y-5.6135
X5.3744Y-5.9285
X5.3744Y-6.2435
X5.3744Y-6.4009
X5.3744Y-6.5584
X5.3744Y-7.1883
X5.3744Y-7.5033
X5.3744Y-7.6608
X5.3744Y-9.5506
X5.3744Y-9.708
X5.3744Y-9.8655
X5.3744Y-10.023
X5.3744Y-10.1805
X5.4717Y-7.155
X5.5117Y-7.185
X5.5318Y-5.4561
X5.5318Y-5.6135
X5.5318Y-5.9285
X5.5318Y-6.086
X5.5318Y-6.2435
X5.5318Y-6.4009
X5.5318Y-6.5584
X5.5318Y-7.5033
X5.5318Y-7.6608
X5.5318Y-9.5506
X5.5318Y-9.708
X5.5318Y-9.8655
X5.5318Y-10.023
X5.5318Y-10.1805
X5.5517Y-7.155
X5.6817Y-7.155
X5.6893Y-5.4561
X5.6893Y-5.6135
X5.6893Y-5.9285
X5.6893Y-6.086
X5.6893Y-6.2435
X5.6893Y-6.4009
X5.6893Y-6.5584
X5.6893Y-7.5033
X5.6893Y-7.6608
X5.6893Y-9.5506
X5.6893Y-9.708
X5.6893Y-9.8655
X5.6893Y-10.023
X5.6893Y-10.1805
X5.7217Y-7.185
X5.7617Y-7.155
X5.8468Y-5.4561
X5.8468Y-5.6135
X5.8468Y-5.9285
X5.8468Y-6.086
X5.8468Y-6.2435
X5.8468Y-6.4009
X5.8468Y-6.5584
X5.8468Y-7.1883
X5.8468Y-7.5033
X5.8468Y-7.6608
X5.8468Y-9.5506
X5.8468Y-9.708
X5.8468Y-9.8655
X5.8468Y-10.023
X5.8468Y-10.1805
X6.0043Y-5.6135
X6.0043Y-5.9285
X6.0043Y-9.708
X6.0043Y-9.8655
X6.0043Y-10.023
X6.1618Y-5.4561
X6.1618Y-5.6135
X6.1618Y-9.5506
X6.1618Y-9.708
X6.1618Y-9.8655
X6.1618Y-10.023
X6.1618Y-10.1805
X6.2717Y-7.155
X6.3117Y-7.185
X6.3192Y-5.4561
X6.3192Y-5.6135
X6.3192Y-5.771
X6.3192Y-5.9285
X6.3192Y-6.086
X6.3192Y-6.2435
X6.3192Y-6.4009
X6.3192Y-6.5584
X6.3192Y-7.5033
X6.3192Y-7.6608
X6.3192Y-9.5506
X6.3192Y-9.708
X6.3192Y-9.8655
X6.3192Y-10.023
X6.3192Y-10.1805
X6.3517Y-7.155
X6.4767Y-5.4561
X6.4767Y-5.6135
X6.4767Y-5.771
X6.4767Y-5.9285
X6.4767Y-6.086
X6.4767Y-6.2435
X6.4767Y-6.4009
X6.4767Y-6.5584
X6.4767Y-7.5033
X6.4767Y-7.6608
X6.4767Y-9.5506
X6.4767Y-9.708
X6.4767Y-9.8655
X6.4767Y-10.023
X6.4767Y-10.1805
X6.4817Y-7.155
X6.5217Y-7.185
X6.5617Y-7.155
X6.6342Y-5.4561
X6.6342Y-5.6135
X6.6342Y-5.771
X6.6342Y-5.9285
X6.6342Y-6.086
X6.6342Y-6.2435
X6.6342Y-6.4009
X6.6342Y-6.5584
X6.6342Y-7.1883
X6.6342Y-7.5033
X6.6342Y-7.6608
X6.6342Y-9.5506
X6.6342Y-9.708
X6.6342Y-9.8655
X6.6342Y-10.023
X6.6342Y-10.1805
X6.7917Y-5.6135
X6.7917Y-5.771
X6.7917Y-5.9285
X6.7917Y-9.708
X6.7917Y-9.8655
X6.7917Y-10.023
X6.9492Y-5.4561
X6.9492Y-5.6135
X6.9492Y-5.771
X6.9492Y-9.5506
X6.9492Y-9.708
X6.9492Y-9.8655
X6.9492Y-10.023
X6.9492Y-10.1805
X7.0617Y-7.155
X7.1017Y-7.185
X7.1066Y-5.4561
X7.1066Y-5.6135
X7.1066Y-5.771
X7.1066Y-6.086
X7.1066Y-6.4009
X7.1066Y-6.5584
X7.1066Y-7.5033
X7.1066Y-7.6608
X7.1066Y-9.5506
X7.1066Y-9.708
X7.1066Y-9.8655
X7.1066Y-10.023
X7.1066Y-10.1805
X7.1417Y-7.155
X7.2641Y-5.4561
X7.2641Y-5.6135
X7.2641Y-6.5584
X7.2641Y-7.5033
X7.2641Y-7.6608
X7.2641Y-9.5506
X7.2641Y-9.708
X7.2641Y-9.8655
X7.2641Y-10.023
X7.2641Y-10.1805
X7.2717Y-7.155
X7.3117Y-7.185
X7.3517Y-7.155
X7.4216Y-5.4561
X7.4216Y-5.6135
X7.4216Y-6.2435
X7.4216Y-6.4009
X7.4216Y-6.5584
X7.4216Y-7.1883
X7.4216Y-7.5033
X7.4216Y-7.6608
X7.4216Y-9.5506
X7.4216Y-9.708
X7.4216Y-9.8655
X7.4216Y-10.023
X7.4216Y-10.1805
X7.5791Y-5.771
X7.5791Y-5.9285
X7.5791Y-9.708
X7.5791Y-9.8655
X7.5791Y-10.023
X7.7366Y-5.4561
X7.7366Y-5.771
X7.7366Y-9.5506
X7.7366Y-9.708
X7.7366Y-9.8655
X7.7366Y-10.023
X7.7366Y-10.1805
X7.8817Y-7.155
X7.894Y-5.4561
X7.894Y-5.9285
X7.894Y-6.086
X7.894Y-6.2435
X7.894Y-6.4009
X7.894Y-6.5584
X7.894Y-7.5033
X7.894Y-7.6608
X7.894Y-9.5506
X7.894Y-9.708
X7.894Y-9.8655
X7.894Y-10.023
X7.894Y-10.1805
X7.9217Y-7.185
X7.9617Y-7.155
X8.0515Y-5.4561
X8.0515Y-5.771
X8.0515Y-5.9285
X8.0515Y-6.086
X8.0515Y-6.2435
X8.0515Y-6.4009
X8.0515Y-6.5584
X8.0515Y-7.5033
X8.0515Y-7.6608
X8.0515Y-9.5506
X8.0515Y-9.708
X8.0515Y-9.8655
X8.0515Y-10.023
X8.0515Y-10.1805
X8.0917Y-7.155
X8.1317Y-7.185
X8.1717Y-7.155
X8.209Y-5.4561
X8.209Y-5.771
X8.209Y-5.9285
X8.209Y-6.086
X8.209Y-6.2435
X8.209Y-6.4009
X8.209Y-6.5584
X8.209Y-7.5033
X8.209Y-7.6608
X8.209Y-9.5506
X8.209Y-9.708
X8.209Y-9.8655
X8.209Y-10.023
X8.209Y-10.1805
X8.3665Y-5.771
X8.3665Y-5.9285
X8.3665Y-9.708
X8.3665Y-9.8655
X8.3665Y-10.023
X8.524Y-5.4561
X8.524Y-5.771
X8.524Y-9.5506
X8.524Y-9.708
X8.524Y-9.8655
X8.524Y-10.023
X8.524Y-10.1805
X8.6814Y-5.4561
X8.6814Y-5.771
X8.6814Y-5.9285
X8.6814Y-6.086
X8.6814Y-6.2435
X8.6814Y-6.4009
X8.6814Y-6.5584
X8.6814Y-7.5033
X8.6814Y-7.6608
X8.6814Y-9.5506
X8.6814Y-9.708
X8.6814Y-9.8655
X8.6814Y-10.023
X8.6814Y-10.1805
X8.6817Y-7.155
X8.7217Y-7.185
X8.7617Y-7.155
X8.8389Y-5.4561
X8.8389Y-5.771
X8.8389Y-5.9285
X8.8389Y-6.086
X8.8389Y-6.2435
X8.8389Y-6.4009
X8.8389Y-6.5584
X8.8389Y-7.1883
X8.8389Y-7.5033
X8.8389Y-7.6608
X8.8389Y-9.5506
X8.8389Y-9.708
X8.8389Y-9.8655
X8.8389Y-10.023
X8.8389Y-10.1805
X8.8917Y-7.155
X8.9317Y-7.185
X8.9717Y-7.155
X8.9964Y-5.4561
X8.9964Y-5.771
X8.9964Y-5.9285
X8.9964Y-6.086
X8.9964Y-6.2435
X8.9964Y-6.4009
X8.9964Y-6.5584
X8.9964Y-7.5033
X8.9964Y-7.6608
X8.9964Y-9.5506
X8.9964Y-9.708
X8.9964Y-9.8655
X8.9964Y-10.023
X8.9964Y-10.1805
X9.1539Y-5.771
X9.1539Y-5.9285
X9.1539Y-9.708
X9.1539Y-9.8655
X9.1539Y-10.023
X9.3114Y-5.771
X9.3114Y-9.5506
X9.3114Y-9.708
X9.3114Y-9.8655
X9.3114Y-10.023
X9.4688Y-5.4561
X9.4688Y-5.771
X9.4688Y-6.086
X9.4688Y-6.4009
X9.4688Y-6.5584
X9.4688Y-7.5033
X9.4688Y-7.6608
X9.4688Y-9.5506
X9.4688Y-9.708
X9.4688Y-9.8655
X9.4688Y-10.023
X9.4688Y-10.1805
X9.4817Y-7.155
X9.5217Y-7.185
X9.5617Y-7.155
X9.6263Y-5.4561
X9.6263Y-5.771
X9.6263Y-6.5584
X9.6263Y-7.1883
X9.6263Y-7.5033
X9.6263Y-7.6608
X9.6263Y-9.5506
X9.6263Y-9.708
X9.6263Y-9.8655
X9.6263Y-10.023
X9.6263Y-10.1805
X9.6917Y-7.155
X9.7317Y-7.185
X9.7717Y-7.155
X9.7838Y-5.4561
X9.7838Y-5.6135
X9.7838Y-6.5584
X9.7838Y-7.5033
X9.7838Y-7.6608
X9.7838Y-9.5506
X9.7838Y-9.708
X9.7838Y-9.8655
X9.7838Y-10.023
X9.7838Y-10.1805
X9.9413Y-5.771
X9.9413Y-5.9285
X9.9413Y-9.5506
X9.9413Y-9.708
X9.9413Y-9.8655
X9.9413Y-10.023
X10.0988Y-5.771
X10.0988Y-5.9285
X10.0988Y-6.086
X10.0988Y-9.5506
X10.0988Y-9.708
X10.0988Y-9.8655
X10.0988Y-10.023
X10.2562Y-5.4561
X10.2562Y-5.9285
X10.2562Y-6.086
X10.2562Y-6.2435
X10.2562Y-6.4009
X10.2562Y-6.5584
X10.2562Y-7.5033
X10.2562Y-7.6608
X10.2562Y-9.5506
X10.2562Y-9.708
X10.2562Y-9.8655
X10.2562Y-10.023
X10.2562Y-10.1805
X10.2717Y-7.155
X10.3117Y-7.185
X10.3517Y-7.155
X10.4137Y-5.4561
X10.4137Y-5.771
X10.4137Y-5.9285
X10.4137Y-6.086
X10.4137Y-6.2435
X10.4137Y-6.4009
X10.4137Y-6.5584
X10.4137Y-7.1883
X10.4137Y-7.5033
X10.4137Y-7.6608
X10.4137Y-9.5506
X10.4137Y-9.708
X10.4137Y-9.8655
X10.4137Y-10.023
X10.4137Y-10.1805
X10.4817Y-7.155
X10.5217Y-7.185
X10.5617Y-7.155
X10.5712Y-5.4561
X10.5712Y-5.771
X10.5712Y-5.9285
X10.5712Y-6.086
X10.5712Y-6.2435
X10.5712Y-6.4009
X10.5712Y-6.5584
X10.5712Y-7.5033
X10.5712Y-7.6608
X10.5712Y-9.5506
X10.5712Y-9.708
X10.5712Y-9.8655
X10.5712Y-10.023
X10.5712Y-10.1805
X10.7287Y-5.771
X10.7287Y-5.9285
X10.7287Y-6.086
X10.7287Y-9.5506
X10.7287Y-9.708
X10.7287Y-9.8655
X10.7287Y-10.023
X10.8862Y-5.771
X10.8862Y-5.9285
X10.8862Y-9.5506
X10.8862Y-9.708
X10.8862Y-9.8655
X10.8862Y-10.023
X11.0437Y-5.4561
X11.0437Y-5.771
X11.0437Y-5.9285
X11.0437Y-6.086
X11.0437Y-6.2435
X11.0437Y-6.4009
X11.0437Y-6.5584
X11.0437Y-7.5033
X11.0437Y-7.6608
X11.0437Y-9.5506
X11.0437Y-9.708
X11.0437Y-9.8655
X11.0437Y-10.023
X11.0437Y-10.1805
X11.0817Y-7.155
X11.1217Y-7.185
X11.1617Y-7.155
X11.2011Y-5.4561
X11.2011Y-5.771
X11.2011Y-5.9285
X11.2011Y-6.086
X11.2011Y-6.2435
X11.2011Y-6.4009
X11.2011Y-6.5584
X11.2011Y-7.5033
X11.2011Y-7.6608
X11.2011Y-9.5506
X11.2011Y-9.708
X11.2011Y-9.8655
X11.2011Y-10.023
X11.2011Y-10.1805
X11.2917Y-7.155
X11.3317Y-7.185
X11.3586Y-5.4561
X11.3586Y-5.771
X11.3586Y-5.9285
X11.3586Y-6.086
X11.3586Y-6.2435
X11.3586Y-6.4009
X11.3586Y-6.5584
X11.3586Y-7.5033
X11.3586Y-7.6608
X11.3586Y-9.5506
X11.3586Y-9.708
X11.3586Y-9.8655
X11.3586Y-10.023
X11.3586Y-10.1805
X11.3717Y-7.155
X11.5161Y-5.771
X11.5161Y-5.9285
X11.5161Y-6.086
X11.5161Y-9.5506
X11.5161Y-9.708
X11.5161Y-9.8655
X11.5161Y-10.023
X11.6736Y-5.771
X11.6736Y-5.9285
X11.6736Y-6.4009
X11.6736Y-9.708
X11.6736Y-9.8655
X11.6736Y-10.023
X11.8311Y-5.4561
X11.8311Y-5.771
X11.8311Y-6.086
X11.8311Y-6.4009
X11.8311Y-6.5584
X11.8311Y-7.5033
X11.8311Y-7.6608
X11.8311Y-9.5506
X11.8311Y-9.708
X11.8311Y-9.8655
X11.8311Y-10.023
X11.8311Y-10.1805
X11.8717Y-7.155
X11.9117Y-7.185
X11.9517Y-7.155
X11.9885Y-5.4561
X11.9885Y-5.771
X11.9885Y-6.5584
X11.9885Y-7.5033
X11.9885Y-9.5506
X11.9885Y-9.708
X11.9885Y-9.8655
X11.9885Y-10.023
X11.9885Y-10.1805
X12.0817Y-7.155
X12.1217Y-7.185
X12.146Y-5.4561
X12.146Y-5.6135
X12.146Y-6.5584
X12.146Y-7.5033
X12.146Y-9.5506
X12.146Y-9.708
X12.146Y-9.8655
X12.146Y-10.023
X12.146Y-10.1805
X12.1617Y-7.155
X12.3035Y-5.771
X12.3035Y-5.9285
X12.3035Y-6.086
X12.3035Y-9.5506
X12.3035Y-9.708
X12.3035Y-9.8655
X12.3035Y-10.023
X12.3035Y-10.1805
X12.461Y-5.771
X12.461Y-5.9285
X12.461Y-9.708
X12.461Y-9.8655
X12.461Y-10.023
X12.6185Y-5.4561
X12.6185Y-5.9285
X12.6185Y-6.086
X12.6185Y-6.2435
X12.6185Y-6.4009
X12.6185Y-6.5584
X12.6185Y-7.1883
X12.6185Y-7.5033
X12.6185Y-9.5506
X12.6185Y-9.708
X12.6185Y-9.8655
X12.6185Y-10.023
X12.6185Y-10.1805
X12.6817Y-7.155
X12.7217Y-7.185
X12.7617Y-7.155
X12.7759Y-5.4561
X12.7759Y-5.771
X12.7759Y-5.9285
X12.7759Y-6.086
X12.7759Y-6.2435
X12.7759Y-6.4009
X12.7759Y-6.5584
X12.7759Y-7.5033
X12.7759Y-9.5506
X12.7759Y-9.708
X12.7759Y-9.8655
X12.7759Y-10.023
X12.7759Y-10.1805
X12.8917Y-7.155
X12.9317Y-7.185
X12.9334Y-5.4561
X12.9334Y-5.771
X12.9334Y-5.9285
X12.9334Y-6.086
X12.9334Y-6.2435
X12.9334Y-6.4009
X12.9334Y-6.5584
X12.9334Y-7.5033
X12.9334Y-9.5506
X12.9334Y-9.708
X12.9334Y-9.8655
X12.9334Y-10.023
X12.9334Y-10.1805
X12.9717Y-7.155
X13.0909Y-5.4561
X13.0909Y-5.771
X13.0909Y-5.9285
X13.0909Y-6.086
X13.0909Y-9.5506
X13.0909Y-9.708
X13.0909Y-9.8655
X13.0909Y-10.023
X13.0909Y-10.1805
X13.2484Y-5.771
X13.2484Y-5.9285
X13.2484Y-9.708
X13.2484Y-9.8655
X13.2484Y-10.023
X13.4059Y-5.4561
X13.4059Y-5.771
X13.4059Y-6.086
X13.4059Y-6.2435
X13.4059Y-6.4009
X13.4059Y-6.5584
X13.4059Y-7.1883
X13.4059Y-7.5033
X13.4059Y-9.5506
X13.4059Y-9.708
X13.4059Y-9.8655
X13.4059Y-10.023
X13.4059Y-10.1805
X13.4717Y-7.155
X13.5117Y-7.185
X13.5517Y-7.155
X13.5633Y-5.4561
X13.5633Y-5.771
X13.5633Y-5.9285
X13.5633Y-6.086
X13.5633Y-6.2435
X13.5633Y-6.4009
X13.5633Y-6.5584
X13.5633Y-7.5033
X13.5633Y-9.5506
X13.5633Y-9.708
X13.5633Y-9.8655
X13.5633Y-10.023
X13.5633Y-10.1805
X13.6817Y-7.155
X13.7208Y-5.4561
X13.7208Y-5.771
X13.7208Y-5.9285
X13.7208Y-6.086
X13.7208Y-6.2435
X13.7208Y-6.4009
X13.7208Y-6.5584
X13.7208Y-7.5033
X13.7208Y-9.5506
X13.7208Y-9.708
X13.7208Y-9.8655
X13.7208Y-10.023
X13.7208Y-10.1805
X13.7217Y-7.185
X13.7617Y-7.155
X13.8783Y-5.4561
X13.8783Y-5.771
X13.8783Y-5.9285
X13.8783Y-6.086
X13.8783Y-9.5506
X13.8783Y-9.708
X13.8783Y-9.8655
X13.8783Y-10.023
X13.8783Y-10.1805
X14.0358Y-5.771
X14.0358Y-5.9285
X14.0358Y-9.708
X14.0358Y-9.8655
X14.0358Y-10.023
X14.1933Y-5.4561
X14.1933Y-5.771
X14.1933Y-6.2435
X14.1933Y-6.4009
X14.1933Y-6.5584
X14.1933Y-7.1883
X14.1933Y-7.5033
X14.1933Y-9.5506
X14.1933Y-9.708
X14.1933Y-9.8655
X14.1933Y-10.023
X14.1933Y-10.1805
X14.2717Y-7.155
X14.3117Y-7.185
X14.3507Y-5.4561
X14.3507Y-5.771
X14.3507Y-6.086
X14.3507Y-6.4009
X14.3507Y-6.5584
X14.3507Y-7.5033
X14.3507Y-9.5506
X14.3507Y-9.708
X14.3507Y-9.8655
X14.3507Y-10.023
X14.3507Y-10.1805
X14.3517Y-7.155
X14.4817Y-7.155
X14.5082Y-5.4561
X14.5082Y-6.5584
X14.5082Y-7.5033
X14.5082Y-9.5506
X14.5082Y-9.708
X14.5082Y-9.8655
X14.5082Y-10.023
X14.5082Y-10.1805
X14.5217Y-7.185
X14.5617Y-7.155
X14.6657Y-5.4561
X14.6657Y-5.6135
X14.6657Y-6.2435
X14.6657Y-6.4009
X14.6657Y-6.5584
X14.6657Y-7.1883
X14.6657Y-7.5033
X14.6657Y-9.5506
X14.6657Y-9.708
X14.6657Y-9.8655
X14.6657Y-10.023
X14.6657Y-10.1805
X14.8232Y-5.771
X14.8232Y-5.9285
X14.8232Y-9.708
X14.8232Y-9.8655
X14.8232Y-10.023
X14.9807Y-5.4561
X14.9807Y-5.771
X14.9807Y-5.9285
X14.9807Y-6.2435
X14.9807Y-6.4009
X14.9807Y-6.5584
X14.9807Y-7.1883
X14.9807Y-7.5033
X14.9807Y-9.5506
X14.9807Y-9.708
X14.9807Y-9.8655
X14.9807Y-10.023
X14.9807Y-10.1805
X15.0717Y-7.155
X15.1117Y-7.185
X15.1381Y-5.4561
X15.1381Y-5.771
X15.1381Y-5.9285
X15.1381Y-6.086
X15.1381Y-6.2435
X15.1381Y-6.4009
X15.1381Y-6.5584
X15.1381Y-7.5033
X15.1381Y-9.5506
X15.1381Y-9.708
X15.1381Y-9.8655
X15.1381Y-10.023
X15.1381Y-10.1805
X15.1517Y-7.155
X15.2817Y-7.155
X15.2956Y-5.4561
X15.2956Y-5.771
X15.2956Y-5.9285
X15.2956Y-6.086
X15.2956Y-6.2435
X15.2956Y-6.4009
X15.2956Y-6.5584
X15.2956Y-7.5033
X15.2956Y-9.5506
X15.2956Y-9.708
X15.2956Y-9.8655
X15.2956Y-10.023
X15.2956Y-10.1805
X15.3217Y-7.185
X15.3617Y-7.155
X15.4531Y-5.4561
X15.4531Y-5.771
X15.4531Y-5.9285
X15.4531Y-6.086
X15.4531Y-6.2435
X15.4531Y-6.4009
X15.4531Y-6.5584
X15.4531Y-7.1883
X15.4531Y-7.5033
X15.4531Y-9.5506
X15.4531Y-9.708
X15.4531Y-9.8655
X15.4531Y-10.023
X15.4531Y-10.1805
X15.6106Y-5.771
X15.6106Y-5.9285
X15.6106Y-9.708
X15.6106Y-9.8655
X15.6106Y-10.023
X15.7681Y-5.4561
X15.7681Y-5.771
X15.7681Y-6.2435
X15.7681Y-9.5506
X15.7681Y-9.708
X15.7681Y-9.8655
X15.7681Y-10.023
X15.7681Y-10.1805
X15.8717Y-7.155
X15.9117Y-7.185
X15.9255Y-5.4561
X15.9255Y-5.771
X15.9255Y-5.9285
X15.9255Y-6.086
X15.9255Y-6.2435
X15.9255Y-6.4009
X15.9255Y-6.5584
X15.9255Y-7.5033
X15.9255Y-9.5506
X15.9255Y-9.708
X15.9255Y-9.8655
X15.9255Y-10.023
X15.9255Y-10.1805
X15.9517Y-7.155
X16.0817Y-7.155
X16.083Y-5.4561
X16.083Y-5.771
X16.083Y-5.9285
X16.083Y-6.086
X16.083Y-6.2435
X16.083Y-6.4009
X16.083Y-6.5584
X16.083Y-7.5033
X16.083Y-9.5506
X16.083Y-9.708
X16.083Y-9.8655
X16.083Y-10.023
X16.083Y-10.1805
X16.1217Y-7.185
X16.1617Y-7.155
X16.2405Y-5.4561
X16.2405Y-5.771
X16.2405Y-5.9285
X16.2405Y-6.086
X16.2405Y-6.2435
X16.2405Y-6.4009
X16.2405Y-6.5584
X16.2405Y-7.1883
X16.2405Y-7.5033
X16.2405Y-9.5506
X16.2405Y-9.708
X16.2405Y-9.8655
X16.2405Y-10.023
X16.2405Y-10.1805
X16.398Y-5.771
X16.398Y-5.9285
X16.398Y-9.708
X16.398Y-9.8655
X16.398Y-10.023
X16.5555Y-5.4561
X16.5555Y-5.771
X16.5555Y-9.5506
X16.5555Y-9.708
X16.5555Y-9.8655
X16.5555Y-10.023
X16.5555Y-10.1805
X16.6717Y-7.155
X16.7117Y-7.185
X16.7129Y-5.4561
X16.7129Y-5.771
X16.7129Y-6.086
X16.7129Y-6.4009
X16.7129Y-6.5584
X16.7129Y-7.5033
X16.7129Y-9.5506
X16.7129Y-9.708
X16.7129Y-9.8655
X16.7129Y-10.023
X16.7129Y-10.1805
X16.7517Y-7.155
X16.8704Y-5.4561
X16.8704Y-6.5584
X16.8704Y-7.5033
X16.8704Y-9.5506
X16.8704Y-9.708
X16.8704Y-9.8655
X16.8704Y-10.023
X16.8704Y-10.1805
X16.8817Y-7.155
X16.8869Y-6.1745
X16.9107Y-6.1507
X16.9217Y-7.185
X16.9617Y-7.155
X17.0279Y-5.4561
X17.0279Y-5.6135
X17.0279Y-5.771
X17.0279Y-5.9285
X17.0279Y-6.086
X17.0279Y-6.2435
X17.0279Y-6.4009
X17.0279Y-6.5584
X17.0279Y-7.1883
X17.0279Y-7.5033
X17.0279Y-9.5506
X17.0279Y-9.708
X17.0279Y-9.8655
X17.0279Y-10.023
X17.0279Y-10.1805
X17.1854Y-5.6135
X17.1854Y-5.771
X17.1854Y-5.9285
X17.1854Y-9.708
X17.1854Y-9.8655
X17.1854Y-10.023
X17.3429Y-5.4561
X17.3429Y-5.6135
X17.3429Y-5.771
X17.3429Y-5.9285
X17.3429Y-6.086
X17.3429Y-9.5506
X17.3429Y-9.708
X17.3429Y-9.8655
X17.3429Y-10.023
X17.3429Y-10.1805
X17.5003Y-5.4561
X17.5003Y-5.6135
X17.5003Y-5.771
X17.5003Y-5.9285
X17.5003Y-6.086
X17.5003Y-6.2435
X17.5003Y-7.1883
X17.5003Y-7.5033
X17.5003Y-7.8183
X17.5003Y-8.1332
X17.5003Y-8.2907
X17.5003Y-8.4482
X17.5003Y-8.6057
X17.5003Y-8.7631
X17.5003Y-8.9206
X17.5003Y-9.0781
X17.5003Y-9.3931
X17.5003Y-9.5506
X17.5003Y-9.708
X17.5003Y-9.8655
X17.5003Y-10.023
X17.5003Y-10.1805
X17.6578Y-5.4561
X17.6578Y-5.6135
X17.6578Y-5.771
X17.6578Y-5.9285
X17.6578Y-6.086
X17.6578Y-6.2435
X17.6578Y-7.1883
X17.6578Y-7.5033
X17.6578Y-8.1332
X17.6578Y-8.2907
X17.6578Y-8.4482
X17.6578Y-9.8655
X17.6578Y-10.023
X17.6578Y-10.1805
X17.8153Y-5.4561
X17.8153Y-5.6135
X17.8153Y-5.771
X17.8153Y-5.9285
X17.8153Y-6.086
X17.8153Y-6.2435
X17.8153Y-7.1883
X17.8153Y-7.5033
X17.8153Y-9.8655
X17.8153Y-10.023
X17.8153Y-10.1805
X17.9728Y-5.6135
X17.9728Y-5.771
X17.9728Y-5.9285
X17.9728Y-6.086
X17.9728Y-6.2435
X17.9728Y-6.4009
X17.9728Y-6.8734
X17.9728Y-7.1883
X17.9728Y-7.3458
X17.9728Y-7.5033
X17.9728Y-7.8183
X17.9728Y-9.8655
X17.9728Y-10.023
X18.1303Y-5.4561
X18.1303Y-5.6135
X18.1303Y-5.771
X18.1303Y-5.9285
X18.1303Y-6.086
X18.1303Y-9.8655
X18.1303Y-10.023
X18.1303Y-10.1805
T2
X4.5934Y-6.8314
X4.5934Y-6.9314
X4.8934Y-6.8314
X4.8934Y-6.9314
X17.5673Y-6.8314
X17.5673Y-6.9314
X17.8673Y-6.8314
X17.8673Y-6.9314
T3
X5.1217Y-6.285
X5.1217Y-6.385
X5.1217Y-6.485
X5.1217Y-6.585
X5.1217Y-6.685
X5.1217Y-6.785
X5.1217Y-6.885
X5.1217Y-6.985
X5.1217Y-7.085
X5.1217Y-7.185
X5.1217Y-7.285
X5.1217Y-7.385
X5.1217Y-7.485
X5.1217Y-7.585
X5.1217Y-7.685
X5.1217Y-7.785
X5.1217Y-7.885
X5.1217Y-7.985
X5.1217Y-8.085
X5.1217Y-8.185
X5.1217Y-8.285
X5.1217Y-8.385
X5.1217Y-8.485
X5.1217Y-8.585
X5.1217Y-8.685
X5.1217Y-8.785
X5.1217Y-8.885
X5.1217Y-8.985
X5.1217Y-9.085
X5.1217Y-9.185
X5.1217Y-9.285
X5.1217Y-9.385
X5.2217Y-6.285
X5.2217Y-6.385
X5.2217Y-6.485
X5.2217Y-6.585
X5.2217Y-6.685
X5.2217Y-6.785
X5.2217Y-6.885
X5.2217Y-6.985
X5.2217Y-7.085
X5.2217Y-7.185
X5.2217Y-7.285
X5.2217Y-7.385
X5.2217Y-7.485
X5.2217Y-7.585
X5.2217Y-7.685
X5.2217Y-7.785
X5.2217Y-7.885
X5.2217Y-7.985
X5.2217Y-8.085
X5.2217Y-8.185
X5.2217Y-8.285
X5.2217Y-8.385
X5.2217Y-8.485
X5.2217Y-8.585
X5.2217Y-8.685
X5.2217Y-8.785
X5.2217Y-8.885
X5.2217Y-8.985
X5.2217Y-9.085
X5.2217Y-9.185
X5.2217Y-9.285
X5.2217Y-9.385
X5.3217Y-6.285
X5.3217Y-6.385
X5.3217Y-6.485
X5.3217Y-6.585
X5.3217Y-6.685
X5.3217Y-6.785
X5.3217Y-6.885
X5.3217Y-6.985
X5.3217Y-7.085
X5.3217Y-7.185
X5.3217Y-7.285
X5.3217Y-7.385
X5.3217Y-7.485
X5.3217Y-7.585
X5.3217Y-7.685
X5.3217Y-7.785
X5.3217Y-7.885
X5.3217Y-7.985
X5.3217Y-8.085
X5.3217Y-8.185
X5.3217Y-8.285
X5.3217Y-8.385
X5.3217Y-8.485
X5.3217Y-8.585
X5.3217Y-8.685
X5.3217Y-8.785
X5.3217Y-8.885
X5.3217Y-8.985
X5.3217Y-9.085
X5.3217Y-9.185
X5.3217Y-9.285
X5.3217Y-9.385
X5.9217Y-6.285
X5.9217Y-6.385
X5.9217Y-6.485
X5.9217Y-6.585
X5.9217Y-6.685
X5.9217Y-6.785
X5.9217Y-6.885
X5.9217Y-6.985
X5.9217Y-7.085
X5.9217Y-7.185
X5.9217Y-7.285
X5.9217Y-7.385
X5.9217Y-7.485
X5.9217Y-7.585
X5.9217Y-7.685
X5.9217Y-7.785
X5.9217Y-7.885
X5.9217Y-7.985
X5.9217Y-8.085
X5.9217Y-8.185
X5.9217Y-8.285
X5.9217Y-8.385
X5.9217Y-8.485
X5.9217Y-8.585
X5.9217Y-8.685
X5.9217Y-8.785
X5.9217Y-8.885
X5.9217Y-8.985
X5.9217Y-9.085
X5.9217Y-9.185
X5.9217Y-9.285
X5.9217Y-9.385
X6.0217Y-6.285
X6.0217Y-6.385
X6.0217Y-6.485
X6.0217Y-6.585
X6.0217Y-6.685
X6.0217Y-6.785
X6.0217Y-6.885
X6.0217Y-6.985
X6.0217Y-7.085
X6.0217Y-7.185
X6.0217Y-7.285
X6.0217Y-7.385
X6.0217Y-7.485
X6.0217Y-7.585
X6.0217Y-7.685
X6.0217Y-7.785
X6.0217Y-7.885
X6.0217Y-7.985
X6.0217Y-8.085
X6.0217Y-8.185
X6.0217Y-8.285
X6.0217Y-8.385
X6.0217Y-8.485
X6.0217Y-8.585
X6.0217Y-8.685
X6.0217Y-8.785
X6.0217Y-8.885
X6.0217Y-8.985
X6.0217Y-9.085
X6.0217Y-9.185
X6.0217Y-9.285
X6.0217Y-9.385
X6.1217Y-6.285
X6.1217Y-6.385
X6.1217Y-6.485
X6.1217Y-6.585
X6.1217Y-6.685
X6.1217Y-6.785
X6.1217Y-6.885
X6.1217Y-6.985
X6.1217Y-7.085
X6.1217Y-7.185
X6.1217Y-7.285
X6.1217Y-7.385
X6.1217Y-7.485
X6.1217Y-7.585
X6.1217Y-7.685
X6.1217Y-7.785
X6.1217Y-7.885
X6.1217Y-7.985
X6.1217Y-8.085
X6.1217Y-8.185
X6.1217Y-8.285
X6.1217Y-8.385
X6.1217Y-8.485
X6.1217Y-8.585
X6.1217Y-8.685
X6.1217Y-8.785
X6.1217Y-8.885
X6.1217Y-8.985
X6.1217Y-9.085
X6.1217Y-9.185
X6.1217Y-9.285
X6.1217Y-9.385
X6.7217Y-6.285
X6.7217Y-6.385
X6.7217Y-6.485
X6.7217Y-6.585
X6.7217Y-6.685
X6.7217Y-6.785
X6.7217Y-6.885
X6.7217Y-6.985
X6.7217Y-7.085
X6.7217Y-7.185
X6.7217Y-7.285
X6.7217Y-7.385
X6.7217Y-7.485
X6.7217Y-7.585
X6.7217Y-7.685
X6.7217Y-7.785
X6.7217Y-7.885
X6.7217Y-7.985
X6.7217Y-8.085
X6.7217Y-8.185
X6.7217Y-8.285
X6.7217Y-8.385
X6.7217Y-8.485
X6.7217Y-8.585
X6.7217Y-8.685
X6.7217Y-8.785
X6.7217Y-8.885
X6.7217Y-8.985
X6.7217Y-9.085
X6.7217Y-9.185
X6.7217Y-9.285
X6.7217Y-9.385
X6.8217Y-6.285
X6.8217Y-6.385
X6.8217Y-6.485
X6.8217Y-6.585
X6.8217Y-6.685
X6.8217Y-6.785
X6.8217Y-6.885
X6.8217Y-6.985
X6.8217Y-7.085
X6.8217Y-7.185
X6.8217Y-7.285
X6.8217Y-7.385
X6.8217Y-7.485
X6.8217Y-7.585
X6.8217Y-7.685
X6.8217Y-7.785
X6.8217Y-7.885
X6.8217Y-7.985
X6.8217Y-8.085
X6.8217Y-8.185
X6.8217Y-8.285
X6.8217Y-8.385
X6.8217Y-8.485
X6.8217Y-8.585
X6.8217Y-8.685
X6.8217Y-8.785
X6.8217Y-8.885
X6.8217Y-8.985
X6.8217Y-9.085
X6.8217Y-9.185
X6.8217Y-9.285
X6.8217Y-9.385
X6.9217Y-6.285
X6.9217Y-6.385
X6.9217Y-6.485
X6.9217Y-6.585
X6.9217Y-6.685
X6.9217Y-6.785
X6.9217Y-6.885
X6.9217Y-6.985
X6.9217Y-7.085
X6.9217Y-7.185
X6.9217Y-7.285
X6.9217Y-7.385
X6.9217Y-7.485
X6.9217Y-7.585
X6.9217Y-7.685
X6.9217Y-7.785
X6.9217Y-7.885
X6.9217Y-7.985
X6.9217Y-8.085
X6.9217Y-8.185
X6.9217Y-8.285
X6.9217Y-8.385
X6.9217Y-8.485
X6.9217Y-8.585
X6.9217Y-8.685
X6.9217Y-8.785
X6.9217Y-8.885
X6.9217Y-8.985
X6.9217Y-9.085
X6.9217Y-9.185
X6.9217Y-9.285
X6.9217Y-9.385
X7.5217Y-6.285
X7.5217Y-6.385
X7.5217Y-6.485
X7.5217Y-6.585
X7.5217Y-6.685
X7.5217Y-6.785
X7.5217Y-6.885
X7.5217Y-6.985
X7.5217Y-7.085
X7.5217Y-7.185
X7.5217Y-7.285
X7.5217Y-7.385
X7.5217Y-7.485
X7.5217Y-7.585
X7.5217Y-7.685
X7.5217Y-7.785
X7.5217Y-7.885
X7.5217Y-7.985
X7.5217Y-8.085
X7.5217Y-8.185
X7.5217Y-8.285
X7.5217Y-8.385
X7.5217Y-8.485
X7.5217Y-8.585
X7.5217Y-8.685
X7.5217Y-8.785
X7.5217Y-8.885
X7.5217Y-8.985
X7.5217Y-9.085
X7.5217Y-9.185
X7.5217Y-9.285
X7.5217Y-9.385
X7.6217Y-6.285
X7.6217Y-6.385
X7.6217Y-6.485
X7.6217Y-6.585
X7.6217Y-6.685
X7.6217Y-6.785
X7.6217Y-6.885
X7.6217Y-6.985
X7.6217Y-7.085
X7.6217Y-7.185
X7.6217Y-7.285
X7.6217Y-7.385
X7.6217Y-7.485
X7.6217Y-7.585
X7.6217Y-7.685
X7.6217Y-7.785
X7.6217Y-7.885
X7.6217Y-7.985
X7.6217Y-8.085
X7.6217Y-8.185
X7.6217Y-8.285
X7.6217Y-8.385
X7.6217Y-8.485
X7.6217Y-8.585
X7.6217Y-8.685
X7.6217Y-8.785
X7.6217Y-8.885
X7.6217Y-8.985
X7.6217Y-9.085
X7.6217Y-9.185
X7.6217Y-9.285
X7.6217Y-9.385
X7.7217Y-6.285
X7.7217Y-6.385
X7.7217Y-6.485
X7.7217Y-6.585
X7.7217Y-6.685
X7.7217Y-6.785
X7.7217Y-6.885
X7.7217Y-6.985
X7.7217Y-7.085
X7.7217Y-7.185
X7.7217Y-7.285
X7.7217Y-7.385
X7.7217Y-7.485
X7.7217Y-7.585
X7.7217Y-7.685
X7.7217Y-7.785
X7.7217Y-7.885
X7.7217Y-7.985
X7.7217Y-8.085
X7.7217Y-8.185
X7.7217Y-8.285
X7.7217Y-8.385
X7.7217Y-8.485
X7.7217Y-8.585
X7.7217Y-8.685
X7.7217Y-8.785
X7.7217Y-8.885
X7.7217Y-8.985
X7.7217Y-9.085
X7.7217Y-9.185
X7.7217Y-9.285
X7.7217Y-9.385
X8.3217Y-6.285
X8.3217Y-6.385
X8.3217Y-6.485
X8.3217Y-6.585
X8.3217Y-6.685
X8.3217Y-6.785
X8.3217Y-6.885
X8.3217Y-6.985
X8.3217Y-7.085
X8.3217Y-7.185
X8.3217Y-7.285
X8.3217Y-7.385
X8.3217Y-7.485
X8.3217Y-7.585
X8.3217Y-7.685
X8.3217Y-7.785
X8.3217Y-7.885
X8.3217Y-7.985
X8.3217Y-8.085
X8.3217Y-8.185
X8.3217Y-8.285
X8.3217Y-8.385
X8.3217Y-8.485
X8.3217Y-8.585
X8.3217Y-8.685
X8.3217Y-8.785
X8.3217Y-8.885
X8.3217Y-8.985
X8.3217Y-9.085
X8.3217Y-9.185
X8.3217Y-9.285
X8.3217Y-9.385
X8.4217Y-6.285
X8.4217Y-6.385
X8.4217Y-6.485
X8.4217Y-6.585
X8.4217Y-6.685
X8.4217Y-6.785
X8.4217Y-6.885
X8.4217Y-6.985
X8.4217Y-7.085
X8.4217Y-7.185
X8.4217Y-7.285
X8.4217Y-7.385
X8.4217Y-7.485
X8.4217Y-7.585
X8.4217Y-7.685
X8.4217Y-7.785
X8.4217Y-7.885
X8.4217Y-7.985
X8.4217Y-8.085
X8.4217Y-8.185
X8.4217Y-8.285
X8.4217Y-8.385
X8.4217Y-8.485
X8.4217Y-8.585
X8.4217Y-8.685
X8.4217Y-8.785
X8.4217Y-8.885
X8.4217Y-8.985
X8.4217Y-9.085
X8.4217Y-9.185
X8.4217Y-9.285
X8.4217Y-9.385
X8.5217Y-6.285
X8.5217Y-6.385
X8.5217Y-6.485
X8.5217Y-6.585
X8.5217Y-6.685
X8.5217Y-6.785
X8.5217Y-6.885
X8.5217Y-6.985
X8.5217Y-7.085
X8.5217Y-7.185
X8.5217Y-7.285
X8.5217Y-7.385
X8.5217Y-7.485
X8.5217Y-7.585
X8.5217Y-7.685
X8.5217Y-7.785
X8.5217Y-7.885
X8.5217Y-7.985
X8.5217Y-8.085
X8.5217Y-8.185
X8.5217Y-8.285
X8.5217Y-8.385
X8.5217Y-8.485
X8.5217Y-8.585
X8.5217Y-8.685
X8.5217Y-8.785
X8.5217Y-8.885
X8.5217Y-8.985
X8.5217Y-9.085
X8.5217Y-9.185
X8.5217Y-9.285
X8.5217Y-9.385
X9.1217Y-6.285
X9.1217Y-6.385
X9.1217Y-6.485
X9.1217Y-6.585
X9.1217Y-6.685
X9.1217Y-6.785
X9.1217Y-6.885
X9.1217Y-6.985
X9.1217Y-7.085
X9.1217Y-7.185
X9.1217Y-7.285
X9.1217Y-7.385
X9.1217Y-7.485
X9.1217Y-7.585
X9.1217Y-7.685
X9.1217Y-7.785
X9.1217Y-7.885
X9.1217Y-7.985
X9.1217Y-8.085
X9.1217Y-8.185
X9.1217Y-8.285
X9.1217Y-8.385
X9.1217Y-8.485
X9.1217Y-8.585
X9.1217Y-8.685
X9.1217Y-8.785
X9.1217Y-8.885
X9.1217Y-8.985
X9.1217Y-9.085
X9.1217Y-9.185
X9.1217Y-9.285
X9.1217Y-9.385
X9.2217Y-6.285
X9.2217Y-6.385
X9.2217Y-6.485
X9.2217Y-6.585
X9.2217Y-6.685
X9.2217Y-6.785
X9.2217Y-6.885
X9.2217Y-6.985
X9.2217Y-7.085
X9.2217Y-7.185
X9.2217Y-7.285
X9.2217Y-7.385
X9.2217Y-7.485
X9.2217Y-7.585
X9.2217Y-7.685
X9.2217Y-7.785
X9.2217Y-7.885
X9.2217Y-7.985
X9.2217Y-8.085
X9.2217Y-8.185
X9.2217Y-8.285
X9.2217Y-8.385
X9.2217Y-8.485
X9.2217Y-8.585
X9.2217Y-8.685
X9.2217Y-8.785
X9.2217Y-8.885
X9.2217Y-8.985
X9.2217Y-9.085
X9.2217Y-9.185
X9.2217Y-9.285
X9.2217Y-9.385
X9.3217Y-6.285
X9.3217Y-6.385
X9.3217Y-6.485
X9.3217Y-6.585
X9.3217Y-6.685
X9.3217Y-6.785
X9.3217Y-6.885
X9.3217Y-6.985
X9.3217Y-7.085
X9.3217Y-7.185
X9.3217Y-7.285
X9.3217Y-7.385
X9.3217Y-7.485
X9.3217Y-7.585
X9.3217Y-7.685
X9.3217Y-7.785
X9.3217Y-7.885
X9.3217Y-7.985
X9.3217Y-8.085
X9.3217Y-8.185
X9.3217Y-8.285
X9.3217Y-8.385
X9.3217Y-8.485
X9.3217Y-8.585
X9.3217Y-8.685
X9.3217Y-8.785
X9.3217Y-8.885
X9.3217Y-8.985
X9.3217Y-9.085
X9.3217Y-9.185
X9.3217Y-9.285
X9.3217Y-9.385
X9.9217Y-6.285
X9.9217Y-6.385
X9.9217Y-6.485
X9.9217Y-6.585
X9.9217Y-6.685
X9.9217Y-6.785
X9.9217Y-6.885
X9.9217Y-6.985
X9.9217Y-7.085
X9.9217Y-7.185
X9.9217Y-7.285
X9.9217Y-7.385
X9.9217Y-7.485
X9.9217Y-7.585
X9.9217Y-7.685
X9.9217Y-7.785
X9.9217Y-7.885
X9.9217Y-7.985
X9.9217Y-8.085
X9.9217Y-8.185
X9.9217Y-8.285
X9.9217Y-8.385
X9.9217Y-8.485
X9.9217Y-8.585
X9.9217Y-8.685
X9.9217Y-8.785
X9.9217Y-8.885
X9.9217Y-8.985
X9.9217Y-9.085
X9.9217Y-9.185
X9.9217Y-9.285
X9.9217Y-9.385
X10.0217Y-6.285
X10.0217Y-6.385
X10.0217Y-6.485
X10.0217Y-6.585
X10.0217Y-6.685
X10.0217Y-6.785
X10.0217Y-6.885
X10.0217Y-6.985
X10.0217Y-7.085
X10.0217Y-7.185
X10.0217Y-7.285
X10.0217Y-7.385
X10.0217Y-7.485
X10.0217Y-7.585
X10.0217Y-7.685
X10.0217Y-7.785
X10.0217Y-7.885
X10.0217Y-7.985
X10.0217Y-8.085
X10.0217Y-8.185
X10.0217Y-8.285
X10.0217Y-8.385
X10.0217Y-8.485
X10.0217Y-8.585
X10.0217Y-8.685
X10.0217Y-8.785
X10.0217Y-8.885
X10.0217Y-8.985
X10.0217Y-9.085
X10.0217Y-9.185
X10.0217Y-9.285
X10.0217Y-9.385
X10.1217Y-6.285
X10.1217Y-6.385
X10.1217Y-6.485
X10.1217Y-6.585
X10.1217Y-6.685
X10.1217Y-6.785
X10.1217Y-6.885
X10.1217Y-6.985
X10.1217Y-7.085
X10.1217Y-7.185
X10.1217Y-7.285
X10.1217Y-7.385
X10.1217Y-7.485
X10.1217Y-7.585
X10.1217Y-7.685
X10.1217Y-7.785
X10.1217Y-7.885
X10.1217Y-7.985
X10.1217Y-8.085
X10.1217Y-8.185
X10.1217Y-8.285
X10.1217Y-8.385
X10.1217Y-8.485
X10.1217Y-8.585
X10.1217Y-8.685
X10.1217Y-8.785
X10.1217Y-8.885
X10.1217Y-8.985
X10.1217Y-9.085
X10.1217Y-9.185
X10.1217Y-9.285
X10.1217Y-9.385
X10.7217Y-6.285
X10.7217Y-6.385
X10.7217Y-6.485
X10.7217Y-6.585
X10.7217Y-6.685
X10.7217Y-6.785
X10.7217Y-6.885
X10.7217Y-6.985
X10.7217Y-7.085
X10.7217Y-7.185
X10.7217Y-7.285
X10.7217Y-7.385
X10.7217Y-7.485
X10.7217Y-7.585
X10.7217Y-7.685
X10.7217Y-7.785
X10.7217Y-7.885
X10.7217Y-7.985
X10.7217Y-8.085
X10.7217Y-8.185
X10.7217Y-8.285
X10.7217Y-8.385
X10.7217Y-8.485
X10.7217Y-8.585
X10.7217Y-8.685
X10.7217Y-8.785
X10.7217Y-8.885
X10.7217Y-8.985
X10.7217Y-9.085
X10.7217Y-9.185
X10.7217Y-9.285
X10.7217Y-9.385
X10.8217Y-6.285
X10.8217Y-6.385
X10.8217Y-6.485
X10.8217Y-6.585
X10.8217Y-6.685
X10.8217Y-6.785
X10.8217Y-6.885
X10.8217Y-6.985
X10.8217Y-7.085
X10.8217Y-7.185
X10.8217Y-7.285
X10.8217Y-7.385
X10.8217Y-7.485
X10.8217Y-7.585
X10.8217Y-7.685
X10.8217Y-7.785
X10.8217Y-7.885
X10.8217Y-7.985
X10.8217Y-8.085
X10.8217Y-8.185
X10.8217Y-8.285
X10.8217Y-8.385
X10.8217Y-8.485
X10.8217Y-8.585
X10.8217Y-8.685
X10.8217Y-8.785
X10.8217Y-8.885
X10.8217Y-8.985
X10.8217Y-9.085
X10.8217Y-9.185
X10.8217Y-9.285
X10.8217Y-9.385
X10.9217Y-6.285
X10.9217Y-6.385
X10.9217Y-6.485
X10.9217Y-6.585
X10.9217Y-6.685
X10.9217Y-6.785
X10.9217Y-6.885
X10.9217Y-6.985
X10.9217Y-7.085
X10.9217Y-7.185
X10.9217Y-7.285
X10.9217Y-7.385
X10.9217Y-7.485
X10.9217Y-7.585
X10.9217Y-7.685
X10.9217Y-7.785
X10.9217Y-7.885
X10.9217Y-7.985
X10.9217Y-8.085
X10.9217Y-8.185
X10.9217Y-8.285
X10.9217Y-8.385
X10.9217Y-8.485
X10.9217Y-8.585
X10.9217Y-8.685
X10.9217Y-8.785
X10.9217Y-8.885
X10.9217Y-8.985
X10.9217Y-9.085
X10.9217Y-9.185
X10.9217Y-9.285
X10.9217Y-9.385
X11.5217Y-6.285
X11.5217Y-6.385
X11.5217Y-6.485
X11.5217Y-6.585
X11.5217Y-6.685
X11.5217Y-6.785
X11.5217Y-6.885
X11.5217Y-6.985
X11.5217Y-7.085
X11.5217Y-7.185
X11.5217Y-7.285
X11.5217Y-7.385
X11.5217Y-7.485
X11.5217Y-7.585
X11.5217Y-7.685
X11.5217Y-7.785
X11.5217Y-7.885
X11.5217Y-7.985
X11.5217Y-8.085
X11.5217Y-8.185
X11.5217Y-8.285
X11.5217Y-8.385
X11.5217Y-8.485
X11.5217Y-8.585
X11.5217Y-8.685
X11.5217Y-8.785
X11.5217Y-8.885
X11.5217Y-8.985
X11.5217Y-9.085
X11.5217Y-9.185
X11.5217Y-9.285
X11.5217Y-9.385
X11.6217Y-6.285
X11.6217Y-6.385
X11.6217Y-6.485
X11.6217Y-6.585
X11.6217Y-6.685
X11.6217Y-6.785
X11.6217Y-6.885
X11.6217Y-6.985
X11.6217Y-7.085
X11.6217Y-7.185
X11.6217Y-7.285
X11.6217Y-7.385
X11.6217Y-7.485
X11.6217Y-7.585
X11.6217Y-7.685
X11.6217Y-7.785
X11.6217Y-7.885
X11.6217Y-7.985
X11.6217Y-8.085
X11.6217Y-8.185
X11.6217Y-8.285
X11.6217Y-8.385
X11.6217Y-8.485
X11.6217Y-8.585
X11.6217Y-8.685
X11.6217Y-8.785
X11.6217Y-8.885
X11.6217Y-8.985
X11.6217Y-9.085
X11.6217Y-9.185
X11.6217Y-9.285
X11.6217Y-9.385
X11.7217Y-6.285
X11.7217Y-6.385
X11.7217Y-6.485
X11.7217Y-6.585
X11.7217Y-6.685
X11.7217Y-6.785
X11.7217Y-6.885
X11.7217Y-6.985
X11.7217Y-7.085
X11.7217Y-7.185
X11.7217Y-7.285
X11.7217Y-7.385
X11.7217Y-7.485
X11.7217Y-7.585
X11.7217Y-7.685
X11.7217Y-7.785
X11.7217Y-7.885
X11.7217Y-7.985
X11.7217Y-8.085
X11.7217Y-8.185
X11.7217Y-8.285
X11.7217Y-8.385
X11.7217Y-8.485
X11.7217Y-8.585
X11.7217Y-8.685
X11.7217Y-8.785
X11.7217Y-8.885
X11.7217Y-8.985
X11.7217Y-9.085
X11.7217Y-9.185
X11.7217Y-9.285
X11.7217Y-9.385
X12.3217Y-6.285
X12.3217Y-6.385
X12.3217Y-6.485
X12.3217Y-6.585
X12.3217Y-6.685
X12.3217Y-6.785
X12.3217Y-6.885
X12.3217Y-6.985
X12.3217Y-7.085
X12.3217Y-7.185
X12.3217Y-7.285
X12.3217Y-7.385
X12.3217Y-7.485
X12.3217Y-7.585
X12.3217Y-7.685
X12.3217Y-7.785
X12.3217Y-7.885
X12.3217Y-7.985
X12.3217Y-8.085
X12.3217Y-8.185
X12.3217Y-8.285
X12.3217Y-8.385
X12.3217Y-8.485
X12.3217Y-8.585
X12.3217Y-8.685
X12.3217Y-8.785
X12.3217Y-8.885
X12.3217Y-8.985
X12.3217Y-9.085
X12.3217Y-9.185
X12.3217Y-9.285
X12.3217Y-9.385
X12.4217Y-6.285
X12.4217Y-6.385
X12.4217Y-6.485
X12.4217Y-6.585
X12.4217Y-6.685
X12.4217Y-6.785
X12.4217Y-6.885
X12.4217Y-6.985
X12.4217Y-7.085
X12.4217Y-7.185
X12.4217Y-7.285
X12.4217Y-7.385
X12.4217Y-7.485
X12.4217Y-7.585
X12.4217Y-7.685
X12.4217Y-7.785
X12.4217Y-7.885
X12.4217Y-7.985
X12.4217Y-8.085
X12.4217Y-8.185
X12.4217Y-8.285
X12.4217Y-8.385
X12.4217Y-8.485
X12.4217Y-8.585
X12.4217Y-8.685
X12.4217Y-8.785
X12.4217Y-8.885
X12.4217Y-8.985
X12.4217Y-9.085
X12.4217Y-9.185
X12.4217Y-9.285
X12.4217Y-9.385
X12.5217Y-6.285
X12.5217Y-6.385
X12.5217Y-6.485
X12.5217Y-6.585
X12.5217Y-6.685
X12.5217Y-6.785
X12.5217Y-6.885
X12.5217Y-6.985
X12.5217Y-7.085
X12.5217Y-7.185
X12.5217Y-7.285
X12.5217Y-7.385
X12.5217Y-7.485
X12.5217Y-7.585
X12.5217Y-7.685
X12.5217Y-7.785
X12.5217Y-7.885
X12.5217Y-7.985
X12.5217Y-8.085
X12.5217Y-8.185
X12.5217Y-8.285
X12.5217Y-8.385
X12.5217Y-8.485
X12.5217Y-8.585
X12.5217Y-8.685
X12.5217Y-8.785
X12.5217Y-8.885
X12.5217Y-8.985
X12.5217Y-9.085
X12.5217Y-9.185
X12.5217Y-9.285
X12.5217Y-9.385
X13.1217Y-6.285
X13.1217Y-6.385
X13.1217Y-6.485
X13.1217Y-6.585
X13.1217Y-6.685
X13.1217Y-6.785
X13.1217Y-6.885
X13.1217Y-6.985
X13.1217Y-7.085
X13.1217Y-7.185
X13.1217Y-7.285
X13.1217Y-7.385
X13.1217Y-7.485
X13.1217Y-7.585
X13.1217Y-7.685
X13.1217Y-7.785
X13.1217Y-7.885
X13.1217Y-7.985
X13.1217Y-8.085
X13.1217Y-8.185
X13.1217Y-8.285
X13.1217Y-8.385
X13.1217Y-8.485
X13.1217Y-8.585
X13.1217Y-8.685
X13.1217Y-8.785
X13.1217Y-8.885
X13.1217Y-8.985
X13.1217Y-9.085
X13.1217Y-9.185
X13.1217Y-9.285
X13.1217Y-9.385
X13.2217Y-6.285
X13.2217Y-6.385
X13.2217Y-6.485
X13.2217Y-6.585
X13.2217Y-6.685
X13.2217Y-6.785
X13.2217Y-6.885
X13.2217Y-6.985
X13.2217Y-7.085
X13.2217Y-7.185
X13.2217Y-7.285
X13.2217Y-7.385
X13.2217Y-7.485
X13.2217Y-7.585
X13.2217Y-7.685
X13.2217Y-7.785
X13.2217Y-7.885
X13.2217Y-7.985
X13.2217Y-8.085
X13.2217Y-8.185
X13.2217Y-8.285
X13.2217Y-8.385
X13.2217Y-8.485
X13.2217Y-8.585
X13.2217Y-8.685
X13.2217Y-8.785
X13.2217Y-8.885
X13.2217Y-8.985
X13.2217Y-9.085
X13.2217Y-9.185
X13.2217Y-9.285
X13.2217Y-9.385
X13.3217Y-6.285
X13.3217Y-6.385
X13.3217Y-6.485
X13.3217Y-6.585
X13.3217Y-6.685
X13.3217Y-6.785
X13.3217Y-6.885
X13.3217Y-6.985
X13.3217Y-7.085
X13.3217Y-7.185
X13.3217Y-7.285
X13.3217Y-7.385
X13.3217Y-7.485
X13.3217Y-7.585
X13.3217Y-7.685
X13.3217Y-7.785
X13.3217Y-7.885
X13.3217Y-7.985
X13.3217Y-8.085
X13.3217Y-8.185
X13.3217Y-8.285
X13.3217Y-8.385
X13.3217Y-8.485
X13.3217Y-8.585
X13.3217Y-8.685
X13.3217Y-8.785
X13.3217Y-8.885
X13.3217Y-8.985
X13.3217Y-9.085
X13.3217Y-9.185
X13.3217Y-9.285
X13.3217Y-9.385
X13.9217Y-6.285
X13.9217Y-6.385
X13.9217Y-6.485
X13.9217Y-6.585
X13.9217Y-6.685
X13.9217Y-6.785
X13.9217Y-6.885
X13.9217Y-6.985
X13.9217Y-7.085
X13.9217Y-7.185
X13.9217Y-7.285
X13.9217Y-7.385
X13.9217Y-7.485
X13.9217Y-7.585
X13.9217Y-7.685
X13.9217Y-7.785
X13.9217Y-7.885
X13.9217Y-7.985
X13.9217Y-8.085
X13.9217Y-8.185
X13.9217Y-8.285
X13.9217Y-8.385
X13.9217Y-8.485
X13.9217Y-8.585
X13.9217Y-8.685
X13.9217Y-8.785
X13.9217Y-8.885
X13.9217Y-8.985
X13.9217Y-9.085
X13.9217Y-9.185
X13.9217Y-9.285
X13.9217Y-9.385
X14.0217Y-6.285
X14.0217Y-6.385
X14.0217Y-6.485
X14.0217Y-6.585
X14.0217Y-6.685
X14.0217Y-6.785
X14.0217Y-6.885
X14.0217Y-6.985
X14.0217Y-7.085
X14.0217Y-7.185
X14.0217Y-7.285
X14.0217Y-7.385
X14.0217Y-7.485
X14.0217Y-7.585
X14.0217Y-7.685
X14.0217Y-7.785
X14.0217Y-7.885
X14.0217Y-7.985
X14.0217Y-8.085
X14.0217Y-8.185
X14.0217Y-8.285
X14.0217Y-8.385
X14.0217Y-8.485
X14.0217Y-8.585
X14.0217Y-8.685
X14.0217Y-8.785
X14.0217Y-8.885
X14.0217Y-8.985
X14.0217Y-9.085
X14.0217Y-9.185
X14.0217Y-9.285
X14.0217Y-9.385
X14.1217Y-6.285
X14.1217Y-6.385
X14.1217Y-6.485
X14.1217Y-6.585
X14.1217Y-6.685
X14.1217Y-6.785
X14.1217Y-6.885
X14.1217Y-6.985
X14.1217Y-7.085
X14.1217Y-7.185
X14.1217Y-7.285
X14.1217Y-7.385
X14.1217Y-7.485
X14.1217Y-7.585
X14.1217Y-7.685
X14.1217Y-7.785
X14.1217Y-7.885
X14.1217Y-7.985
X14.1217Y-8.085
X14.1217Y-8.185
X14.1217Y-8.285
X14.1217Y-8.385
X14.1217Y-8.485
X14.1217Y-8.585
X14.1217Y-8.685
X14.1217Y-8.785
X14.1217Y-8.885
X14.1217Y-8.985
X14.1217Y-9.085
X14.1217Y-9.185
X14.1217Y-9.285
X14.1217Y-9.385
X14.7217Y-6.285
X14.7217Y-6.385
X14.7217Y-6.485
X14.7217Y-6.585
X14.7217Y-6.685
X14.7217Y-6.785
X14.7217Y-6.885
X14.7217Y-6.985
X14.7217Y-7.085
X14.7217Y-7.185
X14.7217Y-7.285
X14.7217Y-7.385
X14.7217Y-7.485
X14.7217Y-7.585
X14.7217Y-7.685
X14.7217Y-7.785
X14.7217Y-7.885
X14.7217Y-7.985
X14.7217Y-8.085
X14.7217Y-8.185
X14.7217Y-8.285
X14.7217Y-8.385
X14.7217Y-8.485
X14.7217Y-8.585
X14.7217Y-8.685
X14.7217Y-8.785
X14.7217Y-8.885
X14.7217Y-8.985
X14.7217Y-9.085
X14.7217Y-9.185
X14.7217Y-9.285
X14.7217Y-9.385
X14.8217Y-6.285
X14.8217Y-6.385
X14.8217Y-6.485
X14.8217Y-6.585
X14.8217Y-6.685
X14.8217Y-6.785
X14.8217Y-6.885
X14.8217Y-6.985
X14.8217Y-7.085
X14.8217Y-7.185
X14.8217Y-7.285
X14.8217Y-7.385
X14.8217Y-7.485
X14.8217Y-7.585
X14.8217Y-7.685
X14.8217Y-7.785
X14.8217Y-7.885
X14.8217Y-7.985
X14.8217Y-8.085
X14.8217Y-8.185
X14.8217Y-8.285
X14.8217Y-8.385
X14.8217Y-8.485
X14.8217Y-8.585
X14.8217Y-8.685
X14.8217Y-8.785
X14.8217Y-8.885
X14.8217Y-8.985
X14.8217Y-9.085
X14.8217Y-9.185
X14.8217Y-9.285
X14.8217Y-9.385
X14.9217Y-6.285
X14.9217Y-6.385
X14.9217Y-6.485
X14.9217Y-6.585
X14.9217Y-6.685
X14.9217Y-6.785
X14.9217Y-6.885
X14.9217Y-6.985
X14.9217Y-7.085
X14.9217Y-7.185
X14.9217Y-7.285
X14.9217Y-7.385
X14.9217Y-7.485
X14.9217Y-7.585
X14.9217Y-7.685
X14.9217Y-7.785
X14.9217Y-7.885
X14.9217Y-7.985
X14.9217Y-8.085
X14.9217Y-8.185
X14.9217Y-8.285
X14.9217Y-8.385
X14.9217Y-8.485
X14.9217Y-8.585
X14.9217Y-8.685
X14.9217Y-8.785
X14.9217Y-8.885
X14.9217Y-8.985
X14.9217Y-9.085
X14.9217Y-9.185
X14.9217Y-9.285
X14.9217Y-9.385
X15.5217Y-6.285
X15.5217Y-6.385
X15.5217Y-6.485
X15.5217Y-6.585
X15.5217Y-6.685
X15.5217Y-6.785
X15.5217Y-6.885
X15.5217Y-6.985
X15.5217Y-7.085
X15.5217Y-7.185
X15.5217Y-7.285
X15.5217Y-7.385
X15.5217Y-7.485
X15.5217Y-7.585
X15.5217Y-7.685
X15.5217Y-7.785
X15.5217Y-7.885
X15.5217Y-7.985
X15.5217Y-8.085
X15.5217Y-8.185
X15.5217Y-8.285
X15.5217Y-8.385
X15.5217Y-8.485
X15.5217Y-8.585
X15.5217Y-8.685
X15.5217Y-8.785
X15.5217Y-8.885
X15.5217Y-8.985
X15.5217Y-9.085
X15.5217Y-9.185
X15.5217Y-9.285
X15.5217Y-9.385
X15.6217Y-6.285
X15.6217Y-6.385
X15.6217Y-6.485
X15.6217Y-6.585
X15.6217Y-6.685
X15.6217Y-6.785
X15.6217Y-6.885
X15.6217Y-6.985
X15.6217Y-7.085
X15.6217Y-7.185
X15.6217Y-7.285
X15.6217Y-7.385
X15.6217Y-7.485
X15.6217Y-7.585
X15.6217Y-7.685
X15.6217Y-7.785
X15.6217Y-7.885
X15.6217Y-7.985
X15.6217Y-8.085
X15.6217Y-8.185
X15.6217Y-8.285
X15.6217Y-8.385
X15.6217Y-8.485
X15.6217Y-8.585
X15.6217Y-8.685
X15.6217Y-8.785
X15.6217Y-8.885
X15.6217Y-8.985
X15.6217Y-9.085
X15.6217Y-9.185
X15.6217Y-9.285
X15.6217Y-9.385
X15.7217Y-6.285
X15.7217Y-6.385
X15.7217Y-6.485
X15.7217Y-6.585
X15.7217Y-6.685
X15.7217Y-6.785
X15.7217Y-6.885
X15.7217Y-6.985
X15.7217Y-7.085
X15.7217Y-7.185
X15.7217Y-7.285
X15.7217Y-7.385
X15.7217Y-7.485
X15.7217Y-7.585
X15.7217Y-7.685
X15.7217Y-7.785
X15.7217Y-7.885
X15.7217Y-7.985
X15.7217Y-8.085
X15.7217Y-8.185
X15.7217Y-8.285
X15.7217Y-8.385
X15.7217Y-8.485
X15.7217Y-8.585
X15.7217Y-8.685
X15.7217Y-8.785
X15.7217Y-8.885
X15.7217Y-8.985
X15.7217Y-9.085
X15.7217Y-9.185
X15.7217Y-9.285
X15.7217Y-9.385
X16.3217Y-6.285
X16.3217Y-6.385
X16.3217Y-6.485
X16.3217Y-6.585
X16.3217Y-6.685
X16.3217Y-6.785
X16.3217Y-6.885
X16.3217Y-6.985
X16.3217Y-7.085
X16.3217Y-7.185
X16.3217Y-7.285
X16.3217Y-7.385
X16.3217Y-7.485
X16.3217Y-7.585
X16.3217Y-7.685
X16.3217Y-7.785
X16.3217Y-7.885
X16.3217Y-7.985
X16.3217Y-8.085
X16.3217Y-8.185
X16.3217Y-8.285
X16.3217Y-8.385
X16.3217Y-8.485
X16.3217Y-8.585
X16.3217Y-8.685
X16.3217Y-8.785
X16.3217Y-8.885
X16.3217Y-8.985
X16.3217Y-9.085
X16.3217Y-9.185
X16.3217Y-9.285
X16.3217Y-9.385
X16.4217Y-6.285
X16.4217Y-6.385
X16.4217Y-6.485
X16.4217Y-6.585
X16.4217Y-6.685
X16.4217Y-6.785
X16.4217Y-6.885
X16.4217Y-6.985
X16.4217Y-7.085
X16.4217Y-7.185
X16.4217Y-7.285
X16.4217Y-7.385
X16.4217Y-7.485
X16.4217Y-7.585
X16.4217Y-7.685
X16.4217Y-7.785
X16.4217Y-7.885
X16.4217Y-7.985
X16.4217Y-8.085
X16.4217Y-8.185
X16.4217Y-8.285
X16.4217Y-8.385
X16.4217Y-8.485
X16.4217Y-8.585
X16.4217Y-8.685
X16.4217Y-8.785
X16.4217Y-8.885
X16.4217Y-8.985
X16.4217Y-9.085
X16.4217Y-9.185
X16.4217Y-9.285
X16.4217Y-9.385
X16.5217Y-6.285
X16.5217Y-6.385
X16.5217Y-6.485
X16.5217Y-6.585
X16.5217Y-6.685
X16.5217Y-6.785
X16.5217Y-6.885
X16.5217Y-6.985
X16.5217Y-7.085
X16.5217Y-7.185
X16.5217Y-7.285
X16.5217Y-7.385
X16.5217Y-7.485
X16.5217Y-7.585
X16.5217Y-7.685
X16.5217Y-7.785
X16.5217Y-7.885
X16.5217Y-7.985
X16.5217Y-8.085
X16.5217Y-8.185
X16.5217Y-8.285
X16.5217Y-8.385
X16.5217Y-8.485
X16.5217Y-8.585
X16.5217Y-8.685
X16.5217Y-8.785
X16.5217Y-8.885
X16.5217Y-8.985
X16.5217Y-9.085
X16.5217Y-9.185
X16.5217Y-9.285
X16.5217Y-9.385
X17.1217Y-6.285
X17.1217Y-6.385
X17.1217Y-6.485
X17.1217Y-6.585
X17.1217Y-6.685
X17.1217Y-6.785
X17.1217Y-6.885
X17.1217Y-6.985
X17.1217Y-7.085
X17.1217Y-7.185
X17.1217Y-7.285
X17.1217Y-7.385
X17.1217Y-7.485
X17.1217Y-7.585
X17.1217Y-7.685
X17.1217Y-7.785
X17.1217Y-7.885
X17.1217Y-7.985
X17.1217Y-8.085
X17.1217Y-8.185
X17.1217Y-8.285
X17.1217Y-8.385
X17.1217Y-8.485
X17.1217Y-8.585
X17.1217Y-8.685
X17.1217Y-8.785
X17.1217Y-8.885
X17.1217Y-8.985
X17.1217Y-9.085
X17.1217Y-9.185
X17.1217Y-9.285
X17.1217Y-9.385
X17.2217Y-6.285
X17.2217Y-6.385
X17.2217Y-6.485
X17.2217Y-6.585
X17.2217Y-6.685
X17.2217Y-6.785
X17.2217Y-6.885
X17.2217Y-6.985
X17.2217Y-7.085
X17.2217Y-7.185
X17.2217Y-7.285
X17.2217Y-7.385
X17.2217Y-7.485
X17.2217Y-7.585
X17.2217Y-7.685
X17.2217Y-7.785
X17.2217Y-7.885
X17.2217Y-7.985
X17.2217Y-8.085
X17.2217Y-8.185
X17.2217Y-8.285
X17.2217Y-8.385
X17.2217Y-8.485
X17.2217Y-8.585
X17.2217Y-8.685
X17.2217Y-8.785
X17.2217Y-8.885
X17.2217Y-8.985
X17.2217Y-9.085
X17.2217Y-9.185
X17.2217Y-9.285
X17.2217Y-9.385
X17.3217Y-6.285
X17.3217Y-6.385
X17.3217Y-6.485
X17.3217Y-6.585
X17.3217Y-6.685
X17.3217Y-6.785
X17.3217Y-6.885
X17.3217Y-6.985
X17.3217Y-7.085
X17.3217Y-7.185
X17.3217Y-7.285
X17.3217Y-7.385
X17.3217Y-7.485
X17.3217Y-7.585
X17.3217Y-7.685
X17.3217Y-7.785
X17.3217Y-7.885
X17.3217Y-7.985
X17.3217Y-8.085
X17.3217Y-8.185
X17.3217Y-8.285
X17.3217Y-8.385
X17.3217Y-8.485
X17.3217Y-8.585
X17.3217Y-8.685
X17.3217Y-8.785
X17.3217Y-8.885
X17.3217Y-8.985
X17.3217Y-9.085
X17.3217Y-9.185
X17.3217Y-9.285
X17.3217Y-9.385
T4
X4.4116Y-5.4236
X4.4116Y-10.2464
X5.2116Y-5.4236
X5.2116Y-10.2464
X6.0116Y-5.4236
X6.0116Y-10.2464
X6.8116Y-5.4236
X6.8116Y-10.2464
X7.6116Y-5.4236
X7.6116Y-10.2464
X8.4116Y-5.4236
X8.4116Y-10.2464
X9.2116Y-5.4236
X9.2116Y-10.2464
X10.0116Y-5.4236
X10.0116Y-10.2464
X10.8116Y-5.4236
X10.8116Y-10.2464
X11.6116Y-5.4236
X11.6116Y-10.2464
X12.4116Y-5.4236
X12.4116Y-10.2464
X13.2116Y-5.4236
X13.2116Y-10.2464
X14.0116Y-5.4236
X14.0116Y-10.2464
X14.8116Y-5.4236
X14.8116Y-10.2464
X15.6116Y-5.4236
X15.6116Y-10.2464
X16.4099Y-10.2464
X16.4116Y-5.4236
X17.2099Y-10.2464
X17.2116Y-5.4236
X18.0116Y-5.4236
X18.0116Y-10.2464
M30
