M48
; DRILL file {KiCad 9.0.3} date 2025-10-05T23:38:32+0200
; FORMAT={-:-/ absolute / inch / decimal}
; #@! TF.CreationDate,2025-10-05T23:38:32+02:00
; #@! TF.GenerationSoftware,Kicad,Pcbnew,9.0.3
; #@! TF.FileFunction,NonPlated,1,2,NPTH
FMAT,2
INCH
; #@! TA.AperFunction,NonPlated,NPTH,ComponentDrill
T1C0.1122
%
G90
G05
T1
X5.2099Y-6.0633
X5.2099Y-9.6067
X6.0099Y-6.0633
X6.0099Y-9.6067
X6.8099Y-6.0633
X6.8099Y-9.6067
X7.6099Y-6.0633
X7.6099Y-9.6067
X8.4099Y-6.0633
X8.4099Y-9.6067
X9.2099Y-6.0633
X9.2099Y-9.6067
X10.0099Y-6.0633
X10.0099Y-9.6067
X10.8099Y-6.0633
X10.8099Y-9.6067
X11.6099Y-6.0633
X11.6099Y-9.6067
X12.4099Y-6.0633
X12.4099Y-9.6067
X13.2099Y-6.0633
X13.2099Y-9.6067
X14.0099Y-6.0633
X14.0099Y-9.6067
X14.8099Y-6.0633
X14.8099Y-9.6067
X15.6099Y-6.0633
X15.6099Y-9.6067
X16.4099Y-6.0633
X16.4099Y-9.6067
X17.2099Y-6.0633
X17.2099Y-9.6067
M30
