%TF.GenerationSoftware,KiCad,Pcbnew,9.0.3*%
%TF.CreationDate,2025-10-05T23:38:32+02:00*%
%TF.ProjectId,ModuCard-System-ActiveBackplane,4d6f6475-4361-4726-942d-53797374656d,A*%
%TF.SameCoordinates,Original*%
%TF.FileFunction,Soldermask,Top*%
%TF.FilePolarity,Negative*%
%FSLAX46Y46*%
G04 Gerber Fmt 4.6, Leading zero omitted, Abs format (unit mm)*
G04 Created by KiCad (PCBNEW 9.0.3) date 2025-10-05 23:38:32*
%MOMM*%
%LPD*%
G01*
G04 APERTURE LIST*
G04 Aperture macros list*
%AMRoundRect*
0 Rectangle with rounded corners*
0 $1 Rounding radius*
0 $2 $3 $4 $5 $6 $7 $8 $9 X,Y pos of 4 corners*
0 Add a 4 corners polygon primitive as box body*
4,1,4,$2,$3,$4,$5,$6,$7,$8,$9,$2,$3,0*
0 Add four circle primitives for the rounded corners*
1,1,$1+$1,$2,$3*
1,1,$1+$1,$4,$5*
1,1,$1+$1,$6,$7*
1,1,$1+$1,$8,$9*
0 Add four rect primitives between the rounded corners*
20,1,$1+$1,$2,$3,$4,$5,0*
20,1,$1+$1,$4,$5,$6,$7,0*
20,1,$1+$1,$6,$7,$8,$9,0*
20,1,$1+$1,$8,$9,$2,$3,0*%
G04 Aperture macros list end*
%ADD10C,4.700000*%
%ADD11RoundRect,0.140000X-0.170000X0.140000X-0.170000X-0.140000X0.170000X-0.140000X0.170000X0.140000X0*%
%ADD12RoundRect,0.249999X-0.525001X-0.525001X0.525001X-0.525001X0.525001X0.525001X-0.525001X0.525001X0*%
%ADD13C,1.550000*%
%ADD14RoundRect,0.135000X-0.185000X0.135000X-0.185000X-0.135000X0.185000X-0.135000X0.185000X0.135000X0*%
%ADD15R,1.600000X1.600000*%
%ADD16O,1.600000X1.600000*%
%ADD17RoundRect,0.135000X-0.135000X-0.185000X0.135000X-0.185000X0.135000X0.185000X-0.135000X0.185000X0*%
%ADD18RoundRect,0.135000X0.135000X0.185000X-0.135000X0.185000X-0.135000X-0.185000X0.135000X-0.185000X0*%
%ADD19RoundRect,0.140000X0.170000X-0.140000X0.170000X0.140000X-0.170000X0.140000X-0.170000X-0.140000X0*%
%ADD20RoundRect,0.147500X0.172500X-0.147500X0.172500X0.147500X-0.172500X0.147500X-0.172500X-0.147500X0*%
G04 APERTURE END LIST*
D10*
%TO.C,H20*%
X457493745Y-260259000D03*
%TD*%
D11*
%TO.C,C24*%
X450385245Y-179987000D03*
X450385245Y-180947000D03*
%TD*%
D12*
%TO.C,J2*%
X150411245Y-159639000D03*
D13*
X150411245Y-162179000D03*
X150411245Y-164719000D03*
X150411245Y-167259000D03*
X150411245Y-169799000D03*
X150411245Y-172339000D03*
X150411245Y-174879000D03*
X150411245Y-177419000D03*
X150411245Y-179959000D03*
X150411245Y-182499000D03*
X150411245Y-185039000D03*
X150411245Y-187579000D03*
X150411245Y-190119000D03*
X150411245Y-192659000D03*
X150411245Y-195199000D03*
X150411245Y-197739000D03*
X150411245Y-200279000D03*
X150411245Y-202819000D03*
X150411245Y-205359000D03*
X150411245Y-207899000D03*
X150411245Y-210439000D03*
X150411245Y-212979000D03*
X150411245Y-215519000D03*
X150411245Y-218059000D03*
X150411245Y-220599000D03*
X150411245Y-223139000D03*
X150411245Y-225679000D03*
X150411245Y-228219000D03*
X150411245Y-230759000D03*
X150411245Y-233299000D03*
X150411245Y-235839000D03*
X150411245Y-238379000D03*
X152951245Y-159639000D03*
X152951245Y-162179000D03*
X152951245Y-164719000D03*
X152951245Y-167259000D03*
X152951245Y-169799000D03*
X152951245Y-172339000D03*
X152951245Y-174879000D03*
X152951245Y-177419000D03*
X152951245Y-179959000D03*
X152951245Y-182499000D03*
X152951245Y-185039000D03*
X152951245Y-187579000D03*
X152951245Y-190119000D03*
X152951245Y-192659000D03*
X152951245Y-195199000D03*
X152951245Y-197739000D03*
X152951245Y-200279000D03*
X152951245Y-202819000D03*
X152951245Y-205359000D03*
X152951245Y-207899000D03*
X152951245Y-210439000D03*
X152951245Y-212979000D03*
X152951245Y-215519000D03*
X152951245Y-218059000D03*
X152951245Y-220599000D03*
X152951245Y-223139000D03*
X152951245Y-225679000D03*
X152951245Y-228219000D03*
X152951245Y-230759000D03*
X152951245Y-233299000D03*
X152951245Y-235839000D03*
X152951245Y-238379000D03*
X155491245Y-159639000D03*
X155491245Y-162179000D03*
X155491245Y-164719000D03*
X155491245Y-167259000D03*
X155491245Y-169799000D03*
X155491245Y-172339000D03*
X155491245Y-174879000D03*
X155491245Y-177419000D03*
X155491245Y-179959000D03*
X155491245Y-182499000D03*
X155491245Y-185039000D03*
X155491245Y-187579000D03*
X155491245Y-190119000D03*
X155491245Y-192659000D03*
X155491245Y-195199000D03*
X155491245Y-197739000D03*
X155491245Y-200279000D03*
X155491245Y-202819000D03*
X155491245Y-205359000D03*
X155491245Y-207899000D03*
X155491245Y-210439000D03*
X155491245Y-212979000D03*
X155491245Y-215519000D03*
X155491245Y-218059000D03*
X155491245Y-220599000D03*
X155491245Y-223139000D03*
X155491245Y-225679000D03*
X155491245Y-228219000D03*
X155491245Y-230759000D03*
X155491245Y-233299000D03*
X155491245Y-235839000D03*
X155491245Y-238379000D03*
%TD*%
D10*
%TO.C,H29*%
X254293745Y-260259000D03*
%TD*%
%TO.C,H24*%
X152693745Y-260259000D03*
%TD*%
D14*
%TO.C,R1*%
X450639245Y-194943000D03*
X450639245Y-195963000D03*
%TD*%
D10*
%TO.C,H36*%
X396533745Y-260259000D03*
%TD*%
%TO.C,H23*%
X132373745Y-260259000D03*
%TD*%
%TO.C,H3*%
X152693745Y-137759000D03*
%TD*%
%TO.C,H17*%
X437173745Y-137759000D03*
%TD*%
%TO.C,H4*%
X173013745Y-137759000D03*
%TD*%
D15*
%TO.C,SW1*%
X116671745Y-173517155D03*
D16*
X116671745Y-176057155D03*
X124291745Y-176057155D03*
X124291745Y-173517155D03*
%TD*%
D10*
%TO.C,H35*%
X376213745Y-260259000D03*
%TD*%
%TO.C,H32*%
X315253745Y-260259000D03*
%TD*%
D14*
%TO.C,R3*%
X458513245Y-188593000D03*
X458513245Y-189613000D03*
%TD*%
D15*
%TO.C,SW2*%
X446210245Y-173517155D03*
D16*
X446210245Y-176057155D03*
X453830245Y-176057155D03*
X453830245Y-173517155D03*
%TD*%
D10*
%TO.C,H28*%
X233973745Y-260259000D03*
%TD*%
D12*
%TO.C,J10*%
X312971245Y-159639000D03*
D13*
X312971245Y-162179000D03*
X312971245Y-164719000D03*
X312971245Y-167259000D03*
X312971245Y-169799000D03*
X312971245Y-172339000D03*
X312971245Y-174879000D03*
X312971245Y-177419000D03*
X312971245Y-179959000D03*
X312971245Y-182499000D03*
X312971245Y-185039000D03*
X312971245Y-187579000D03*
X312971245Y-190119000D03*
X312971245Y-192659000D03*
X312971245Y-195199000D03*
X312971245Y-197739000D03*
X312971245Y-200279000D03*
X312971245Y-202819000D03*
X312971245Y-205359000D03*
X312971245Y-207899000D03*
X312971245Y-210439000D03*
X312971245Y-212979000D03*
X312971245Y-215519000D03*
X312971245Y-218059000D03*
X312971245Y-220599000D03*
X312971245Y-223139000D03*
X312971245Y-225679000D03*
X312971245Y-228219000D03*
X312971245Y-230759000D03*
X312971245Y-233299000D03*
X312971245Y-235839000D03*
X312971245Y-238379000D03*
X315511245Y-159639000D03*
X315511245Y-162179000D03*
X315511245Y-164719000D03*
X315511245Y-167259000D03*
X315511245Y-169799000D03*
X315511245Y-172339000D03*
X315511245Y-174879000D03*
X315511245Y-177419000D03*
X315511245Y-179959000D03*
X315511245Y-182499000D03*
X315511245Y-185039000D03*
X315511245Y-187579000D03*
X315511245Y-190119000D03*
X315511245Y-192659000D03*
X315511245Y-195199000D03*
X315511245Y-197739000D03*
X315511245Y-200279000D03*
X315511245Y-202819000D03*
X315511245Y-205359000D03*
X315511245Y-207899000D03*
X315511245Y-210439000D03*
X315511245Y-212979000D03*
X315511245Y-215519000D03*
X315511245Y-218059000D03*
X315511245Y-220599000D03*
X315511245Y-223139000D03*
X315511245Y-225679000D03*
X315511245Y-228219000D03*
X315511245Y-230759000D03*
X315511245Y-233299000D03*
X315511245Y-235839000D03*
X315511245Y-238379000D03*
X318051245Y-159639000D03*
X318051245Y-162179000D03*
X318051245Y-164719000D03*
X318051245Y-167259000D03*
X318051245Y-169799000D03*
X318051245Y-172339000D03*
X318051245Y-174879000D03*
X318051245Y-177419000D03*
X318051245Y-179959000D03*
X318051245Y-182499000D03*
X318051245Y-185039000D03*
X318051245Y-187579000D03*
X318051245Y-190119000D03*
X318051245Y-192659000D03*
X318051245Y-195199000D03*
X318051245Y-197739000D03*
X318051245Y-200279000D03*
X318051245Y-202819000D03*
X318051245Y-205359000D03*
X318051245Y-207899000D03*
X318051245Y-210439000D03*
X318051245Y-212979000D03*
X318051245Y-215519000D03*
X318051245Y-218059000D03*
X318051245Y-220599000D03*
X318051245Y-223139000D03*
X318051245Y-225679000D03*
X318051245Y-228219000D03*
X318051245Y-230759000D03*
X318051245Y-233299000D03*
X318051245Y-235839000D03*
X318051245Y-238379000D03*
%TD*%
D12*
%TO.C,J11*%
X333291245Y-159639000D03*
D13*
X333291245Y-162179000D03*
X333291245Y-164719000D03*
X333291245Y-167259000D03*
X333291245Y-169799000D03*
X333291245Y-172339000D03*
X333291245Y-174879000D03*
X333291245Y-177419000D03*
X333291245Y-179959000D03*
X333291245Y-182499000D03*
X333291245Y-185039000D03*
X333291245Y-187579000D03*
X333291245Y-190119000D03*
X333291245Y-192659000D03*
X333291245Y-195199000D03*
X333291245Y-197739000D03*
X333291245Y-200279000D03*
X333291245Y-202819000D03*
X333291245Y-205359000D03*
X333291245Y-207899000D03*
X333291245Y-210439000D03*
X333291245Y-212979000D03*
X333291245Y-215519000D03*
X333291245Y-218059000D03*
X333291245Y-220599000D03*
X333291245Y-223139000D03*
X333291245Y-225679000D03*
X333291245Y-228219000D03*
X333291245Y-230759000D03*
X333291245Y-233299000D03*
X333291245Y-235839000D03*
X333291245Y-238379000D03*
X335831245Y-159639000D03*
X335831245Y-162179000D03*
X335831245Y-164719000D03*
X335831245Y-167259000D03*
X335831245Y-169799000D03*
X335831245Y-172339000D03*
X335831245Y-174879000D03*
X335831245Y-177419000D03*
X335831245Y-179959000D03*
X335831245Y-182499000D03*
X335831245Y-185039000D03*
X335831245Y-187579000D03*
X335831245Y-190119000D03*
X335831245Y-192659000D03*
X335831245Y-195199000D03*
X335831245Y-197739000D03*
X335831245Y-200279000D03*
X335831245Y-202819000D03*
X335831245Y-205359000D03*
X335831245Y-207899000D03*
X335831245Y-210439000D03*
X335831245Y-212979000D03*
X335831245Y-215519000D03*
X335831245Y-218059000D03*
X335831245Y-220599000D03*
X335831245Y-223139000D03*
X335831245Y-225679000D03*
X335831245Y-228219000D03*
X335831245Y-230759000D03*
X335831245Y-233299000D03*
X335831245Y-235839000D03*
X335831245Y-238379000D03*
X338371245Y-159639000D03*
X338371245Y-162179000D03*
X338371245Y-164719000D03*
X338371245Y-167259000D03*
X338371245Y-169799000D03*
X338371245Y-172339000D03*
X338371245Y-174879000D03*
X338371245Y-177419000D03*
X338371245Y-179959000D03*
X338371245Y-182499000D03*
X338371245Y-185039000D03*
X338371245Y-187579000D03*
X338371245Y-190119000D03*
X338371245Y-192659000D03*
X338371245Y-195199000D03*
X338371245Y-197739000D03*
X338371245Y-200279000D03*
X338371245Y-202819000D03*
X338371245Y-205359000D03*
X338371245Y-207899000D03*
X338371245Y-210439000D03*
X338371245Y-212979000D03*
X338371245Y-215519000D03*
X338371245Y-218059000D03*
X338371245Y-220599000D03*
X338371245Y-223139000D03*
X338371245Y-225679000D03*
X338371245Y-228219000D03*
X338371245Y-230759000D03*
X338371245Y-233299000D03*
X338371245Y-235839000D03*
X338371245Y-238379000D03*
%TD*%
D10*
%TO.C,H2*%
X132373745Y-137759000D03*
%TD*%
%TO.C,H34*%
X355893745Y-260259000D03*
%TD*%
%TO.C,H14*%
X376213745Y-137759000D03*
%TD*%
D12*
%TO.C,J9*%
X292651245Y-159639000D03*
D13*
X292651245Y-162179000D03*
X292651245Y-164719000D03*
X292651245Y-167259000D03*
X292651245Y-169799000D03*
X292651245Y-172339000D03*
X292651245Y-174879000D03*
X292651245Y-177419000D03*
X292651245Y-179959000D03*
X292651245Y-182499000D03*
X292651245Y-185039000D03*
X292651245Y-187579000D03*
X292651245Y-190119000D03*
X292651245Y-192659000D03*
X292651245Y-195199000D03*
X292651245Y-197739000D03*
X292651245Y-200279000D03*
X292651245Y-202819000D03*
X292651245Y-205359000D03*
X292651245Y-207899000D03*
X292651245Y-210439000D03*
X292651245Y-212979000D03*
X292651245Y-215519000D03*
X292651245Y-218059000D03*
X292651245Y-220599000D03*
X292651245Y-223139000D03*
X292651245Y-225679000D03*
X292651245Y-228219000D03*
X292651245Y-230759000D03*
X292651245Y-233299000D03*
X292651245Y-235839000D03*
X292651245Y-238379000D03*
X295191245Y-159639000D03*
X295191245Y-162179000D03*
X295191245Y-164719000D03*
X295191245Y-167259000D03*
X295191245Y-169799000D03*
X295191245Y-172339000D03*
X295191245Y-174879000D03*
X295191245Y-177419000D03*
X295191245Y-179959000D03*
X295191245Y-182499000D03*
X295191245Y-185039000D03*
X295191245Y-187579000D03*
X295191245Y-190119000D03*
X295191245Y-192659000D03*
X295191245Y-195199000D03*
X295191245Y-197739000D03*
X295191245Y-200279000D03*
X295191245Y-202819000D03*
X295191245Y-205359000D03*
X295191245Y-207899000D03*
X295191245Y-210439000D03*
X295191245Y-212979000D03*
X295191245Y-215519000D03*
X295191245Y-218059000D03*
X295191245Y-220599000D03*
X295191245Y-223139000D03*
X295191245Y-225679000D03*
X295191245Y-228219000D03*
X295191245Y-230759000D03*
X295191245Y-233299000D03*
X295191245Y-235839000D03*
X295191245Y-238379000D03*
X297731245Y-159639000D03*
X297731245Y-162179000D03*
X297731245Y-164719000D03*
X297731245Y-167259000D03*
X297731245Y-169799000D03*
X297731245Y-172339000D03*
X297731245Y-174879000D03*
X297731245Y-177419000D03*
X297731245Y-179959000D03*
X297731245Y-182499000D03*
X297731245Y-185039000D03*
X297731245Y-187579000D03*
X297731245Y-190119000D03*
X297731245Y-192659000D03*
X297731245Y-195199000D03*
X297731245Y-197739000D03*
X297731245Y-200279000D03*
X297731245Y-202819000D03*
X297731245Y-205359000D03*
X297731245Y-207899000D03*
X297731245Y-210439000D03*
X297731245Y-212979000D03*
X297731245Y-215519000D03*
X297731245Y-218059000D03*
X297731245Y-220599000D03*
X297731245Y-223139000D03*
X297731245Y-225679000D03*
X297731245Y-228219000D03*
X297731245Y-230759000D03*
X297731245Y-233299000D03*
X297731245Y-235839000D03*
X297731245Y-238379000D03*
%TD*%
D10*
%TO.C,H15*%
X416811245Y-260259000D03*
%TD*%
D12*
%TO.C,J6*%
X231691245Y-159639000D03*
D13*
X231691245Y-162179000D03*
X231691245Y-164719000D03*
X231691245Y-167259000D03*
X231691245Y-169799000D03*
X231691245Y-172339000D03*
X231691245Y-174879000D03*
X231691245Y-177419000D03*
X231691245Y-179959000D03*
X231691245Y-182499000D03*
X231691245Y-185039000D03*
X231691245Y-187579000D03*
X231691245Y-190119000D03*
X231691245Y-192659000D03*
X231691245Y-195199000D03*
X231691245Y-197739000D03*
X231691245Y-200279000D03*
X231691245Y-202819000D03*
X231691245Y-205359000D03*
X231691245Y-207899000D03*
X231691245Y-210439000D03*
X231691245Y-212979000D03*
X231691245Y-215519000D03*
X231691245Y-218059000D03*
X231691245Y-220599000D03*
X231691245Y-223139000D03*
X231691245Y-225679000D03*
X231691245Y-228219000D03*
X231691245Y-230759000D03*
X231691245Y-233299000D03*
X231691245Y-235839000D03*
X231691245Y-238379000D03*
X234231245Y-159639000D03*
X234231245Y-162179000D03*
X234231245Y-164719000D03*
X234231245Y-167259000D03*
X234231245Y-169799000D03*
X234231245Y-172339000D03*
X234231245Y-174879000D03*
X234231245Y-177419000D03*
X234231245Y-179959000D03*
X234231245Y-182499000D03*
X234231245Y-185039000D03*
X234231245Y-187579000D03*
X234231245Y-190119000D03*
X234231245Y-192659000D03*
X234231245Y-195199000D03*
X234231245Y-197739000D03*
X234231245Y-200279000D03*
X234231245Y-202819000D03*
X234231245Y-205359000D03*
X234231245Y-207899000D03*
X234231245Y-210439000D03*
X234231245Y-212979000D03*
X234231245Y-215519000D03*
X234231245Y-218059000D03*
X234231245Y-220599000D03*
X234231245Y-223139000D03*
X234231245Y-225679000D03*
X234231245Y-228219000D03*
X234231245Y-230759000D03*
X234231245Y-233299000D03*
X234231245Y-235839000D03*
X234231245Y-238379000D03*
X236771245Y-159639000D03*
X236771245Y-162179000D03*
X236771245Y-164719000D03*
X236771245Y-167259000D03*
X236771245Y-169799000D03*
X236771245Y-172339000D03*
X236771245Y-174879000D03*
X236771245Y-177419000D03*
X236771245Y-179959000D03*
X236771245Y-182499000D03*
X236771245Y-185039000D03*
X236771245Y-187579000D03*
X236771245Y-190119000D03*
X236771245Y-192659000D03*
X236771245Y-195199000D03*
X236771245Y-197739000D03*
X236771245Y-200279000D03*
X236771245Y-202819000D03*
X236771245Y-205359000D03*
X236771245Y-207899000D03*
X236771245Y-210439000D03*
X236771245Y-212979000D03*
X236771245Y-215519000D03*
X236771245Y-218059000D03*
X236771245Y-220599000D03*
X236771245Y-223139000D03*
X236771245Y-225679000D03*
X236771245Y-228219000D03*
X236771245Y-230759000D03*
X236771245Y-233299000D03*
X236771245Y-235839000D03*
X236771245Y-238379000D03*
%TD*%
D10*
%TO.C,H8*%
X254293745Y-137759000D03*
%TD*%
D12*
%TO.C,J3*%
X170731245Y-159639000D03*
D13*
X170731245Y-162179000D03*
X170731245Y-164719000D03*
X170731245Y-167259000D03*
X170731245Y-169799000D03*
X170731245Y-172339000D03*
X170731245Y-174879000D03*
X170731245Y-177419000D03*
X170731245Y-179959000D03*
X170731245Y-182499000D03*
X170731245Y-185039000D03*
X170731245Y-187579000D03*
X170731245Y-190119000D03*
X170731245Y-192659000D03*
X170731245Y-195199000D03*
X170731245Y-197739000D03*
X170731245Y-200279000D03*
X170731245Y-202819000D03*
X170731245Y-205359000D03*
X170731245Y-207899000D03*
X170731245Y-210439000D03*
X170731245Y-212979000D03*
X170731245Y-215519000D03*
X170731245Y-218059000D03*
X170731245Y-220599000D03*
X170731245Y-223139000D03*
X170731245Y-225679000D03*
X170731245Y-228219000D03*
X170731245Y-230759000D03*
X170731245Y-233299000D03*
X170731245Y-235839000D03*
X170731245Y-238379000D03*
X173271245Y-159639000D03*
X173271245Y-162179000D03*
X173271245Y-164719000D03*
X173271245Y-167259000D03*
X173271245Y-169799000D03*
X173271245Y-172339000D03*
X173271245Y-174879000D03*
X173271245Y-177419000D03*
X173271245Y-179959000D03*
X173271245Y-182499000D03*
X173271245Y-185039000D03*
X173271245Y-187579000D03*
X173271245Y-190119000D03*
X173271245Y-192659000D03*
X173271245Y-195199000D03*
X173271245Y-197739000D03*
X173271245Y-200279000D03*
X173271245Y-202819000D03*
X173271245Y-205359000D03*
X173271245Y-207899000D03*
X173271245Y-210439000D03*
X173271245Y-212979000D03*
X173271245Y-215519000D03*
X173271245Y-218059000D03*
X173271245Y-220599000D03*
X173271245Y-223139000D03*
X173271245Y-225679000D03*
X173271245Y-228219000D03*
X173271245Y-230759000D03*
X173271245Y-233299000D03*
X173271245Y-235839000D03*
X173271245Y-238379000D03*
X175811245Y-159639000D03*
X175811245Y-162179000D03*
X175811245Y-164719000D03*
X175811245Y-167259000D03*
X175811245Y-169799000D03*
X175811245Y-172339000D03*
X175811245Y-174879000D03*
X175811245Y-177419000D03*
X175811245Y-179959000D03*
X175811245Y-182499000D03*
X175811245Y-185039000D03*
X175811245Y-187579000D03*
X175811245Y-190119000D03*
X175811245Y-192659000D03*
X175811245Y-195199000D03*
X175811245Y-197739000D03*
X175811245Y-200279000D03*
X175811245Y-202819000D03*
X175811245Y-205359000D03*
X175811245Y-207899000D03*
X175811245Y-210439000D03*
X175811245Y-212979000D03*
X175811245Y-215519000D03*
X175811245Y-218059000D03*
X175811245Y-220599000D03*
X175811245Y-223139000D03*
X175811245Y-225679000D03*
X175811245Y-228219000D03*
X175811245Y-230759000D03*
X175811245Y-233299000D03*
X175811245Y-235839000D03*
X175811245Y-238379000D03*
%TD*%
D17*
%TO.C,R9*%
X119167245Y-179959000D03*
X120187245Y-179959000D03*
%TD*%
D10*
%TO.C,H11*%
X315253745Y-137759000D03*
%TD*%
D18*
%TO.C,R7*%
X448863245Y-169545000D03*
X447843245Y-169545000D03*
%TD*%
D10*
%TO.C,H12*%
X335573745Y-137759000D03*
%TD*%
D17*
%TO.C,R4*%
X122723245Y-169799000D03*
X123743245Y-169799000D03*
%TD*%
D19*
%TO.C,C21*%
X121455245Y-169799000D03*
X121455245Y-168839000D03*
%TD*%
D18*
%TO.C,R6*%
X452419245Y-169545000D03*
X451399245Y-169545000D03*
%TD*%
D10*
%TO.C,H22*%
X112053745Y-260259000D03*
%TD*%
D18*
%TO.C,R10*%
X452673245Y-179959000D03*
X451653245Y-179959000D03*
%TD*%
D10*
%TO.C,H10*%
X294933745Y-137759000D03*
%TD*%
%TO.C,H21*%
X396533745Y-137759000D03*
%TD*%
D12*
%TO.C,J7*%
X252011245Y-159639000D03*
D13*
X252011245Y-162179000D03*
X252011245Y-164719000D03*
X252011245Y-167259000D03*
X252011245Y-169799000D03*
X252011245Y-172339000D03*
X252011245Y-174879000D03*
X252011245Y-177419000D03*
X252011245Y-179959000D03*
X252011245Y-182499000D03*
X252011245Y-185039000D03*
X252011245Y-187579000D03*
X252011245Y-190119000D03*
X252011245Y-192659000D03*
X252011245Y-195199000D03*
X252011245Y-197739000D03*
X252011245Y-200279000D03*
X252011245Y-202819000D03*
X252011245Y-205359000D03*
X252011245Y-207899000D03*
X252011245Y-210439000D03*
X252011245Y-212979000D03*
X252011245Y-215519000D03*
X252011245Y-218059000D03*
X252011245Y-220599000D03*
X252011245Y-223139000D03*
X252011245Y-225679000D03*
X252011245Y-228219000D03*
X252011245Y-230759000D03*
X252011245Y-233299000D03*
X252011245Y-235839000D03*
X252011245Y-238379000D03*
X254551245Y-159639000D03*
X254551245Y-162179000D03*
X254551245Y-164719000D03*
X254551245Y-167259000D03*
X254551245Y-169799000D03*
X254551245Y-172339000D03*
X254551245Y-174879000D03*
X254551245Y-177419000D03*
X254551245Y-179959000D03*
X254551245Y-182499000D03*
X254551245Y-185039000D03*
X254551245Y-187579000D03*
X254551245Y-190119000D03*
X254551245Y-192659000D03*
X254551245Y-195199000D03*
X254551245Y-197739000D03*
X254551245Y-200279000D03*
X254551245Y-202819000D03*
X254551245Y-205359000D03*
X254551245Y-207899000D03*
X254551245Y-210439000D03*
X254551245Y-212979000D03*
X254551245Y-215519000D03*
X254551245Y-218059000D03*
X254551245Y-220599000D03*
X254551245Y-223139000D03*
X254551245Y-225679000D03*
X254551245Y-228219000D03*
X254551245Y-230759000D03*
X254551245Y-233299000D03*
X254551245Y-235839000D03*
X254551245Y-238379000D03*
X257091245Y-159639000D03*
X257091245Y-162179000D03*
X257091245Y-164719000D03*
X257091245Y-167259000D03*
X257091245Y-169799000D03*
X257091245Y-172339000D03*
X257091245Y-174879000D03*
X257091245Y-177419000D03*
X257091245Y-179959000D03*
X257091245Y-182499000D03*
X257091245Y-185039000D03*
X257091245Y-187579000D03*
X257091245Y-190119000D03*
X257091245Y-192659000D03*
X257091245Y-195199000D03*
X257091245Y-197739000D03*
X257091245Y-200279000D03*
X257091245Y-202819000D03*
X257091245Y-205359000D03*
X257091245Y-207899000D03*
X257091245Y-210439000D03*
X257091245Y-212979000D03*
X257091245Y-215519000D03*
X257091245Y-218059000D03*
X257091245Y-220599000D03*
X257091245Y-223139000D03*
X257091245Y-225679000D03*
X257091245Y-228219000D03*
X257091245Y-230759000D03*
X257091245Y-233299000D03*
X257091245Y-235839000D03*
X257091245Y-238379000D03*
%TD*%
D18*
%TO.C,R11*%
X449117245Y-179959000D03*
X448097245Y-179959000D03*
%TD*%
D12*
%TO.C,J4*%
X191051245Y-159639000D03*
D13*
X191051245Y-162179000D03*
X191051245Y-164719000D03*
X191051245Y-167259000D03*
X191051245Y-169799000D03*
X191051245Y-172339000D03*
X191051245Y-174879000D03*
X191051245Y-177419000D03*
X191051245Y-179959000D03*
X191051245Y-182499000D03*
X191051245Y-185039000D03*
X191051245Y-187579000D03*
X191051245Y-190119000D03*
X191051245Y-192659000D03*
X191051245Y-195199000D03*
X191051245Y-197739000D03*
X191051245Y-200279000D03*
X191051245Y-202819000D03*
X191051245Y-205359000D03*
X191051245Y-207899000D03*
X191051245Y-210439000D03*
X191051245Y-212979000D03*
X191051245Y-215519000D03*
X191051245Y-218059000D03*
X191051245Y-220599000D03*
X191051245Y-223139000D03*
X191051245Y-225679000D03*
X191051245Y-228219000D03*
X191051245Y-230759000D03*
X191051245Y-233299000D03*
X191051245Y-235839000D03*
X191051245Y-238379000D03*
X193591245Y-159639000D03*
X193591245Y-162179000D03*
X193591245Y-164719000D03*
X193591245Y-167259000D03*
X193591245Y-169799000D03*
X193591245Y-172339000D03*
X193591245Y-174879000D03*
X193591245Y-177419000D03*
X193591245Y-179959000D03*
X193591245Y-182499000D03*
X193591245Y-185039000D03*
X193591245Y-187579000D03*
X193591245Y-190119000D03*
X193591245Y-192659000D03*
X193591245Y-195199000D03*
X193591245Y-197739000D03*
X193591245Y-200279000D03*
X193591245Y-202819000D03*
X193591245Y-205359000D03*
X193591245Y-207899000D03*
X193591245Y-210439000D03*
X193591245Y-212979000D03*
X193591245Y-215519000D03*
X193591245Y-218059000D03*
X193591245Y-220599000D03*
X193591245Y-223139000D03*
X193591245Y-225679000D03*
X193591245Y-228219000D03*
X193591245Y-230759000D03*
X193591245Y-233299000D03*
X193591245Y-235839000D03*
X193591245Y-238379000D03*
X196131245Y-159639000D03*
X196131245Y-162179000D03*
X196131245Y-164719000D03*
X196131245Y-167259000D03*
X196131245Y-169799000D03*
X196131245Y-172339000D03*
X196131245Y-174879000D03*
X196131245Y-177419000D03*
X196131245Y-179959000D03*
X196131245Y-182499000D03*
X196131245Y-185039000D03*
X196131245Y-187579000D03*
X196131245Y-190119000D03*
X196131245Y-192659000D03*
X196131245Y-195199000D03*
X196131245Y-197739000D03*
X196131245Y-200279000D03*
X196131245Y-202819000D03*
X196131245Y-205359000D03*
X196131245Y-207899000D03*
X196131245Y-210439000D03*
X196131245Y-212979000D03*
X196131245Y-215519000D03*
X196131245Y-218059000D03*
X196131245Y-220599000D03*
X196131245Y-223139000D03*
X196131245Y-225679000D03*
X196131245Y-228219000D03*
X196131245Y-230759000D03*
X196131245Y-233299000D03*
X196131245Y-235839000D03*
X196131245Y-238379000D03*
%TD*%
D12*
%TO.C,J13*%
X373931245Y-159639000D03*
D13*
X373931245Y-162179000D03*
X373931245Y-164719000D03*
X373931245Y-167259000D03*
X373931245Y-169799000D03*
X373931245Y-172339000D03*
X373931245Y-174879000D03*
X373931245Y-177419000D03*
X373931245Y-179959000D03*
X373931245Y-182499000D03*
X373931245Y-185039000D03*
X373931245Y-187579000D03*
X373931245Y-190119000D03*
X373931245Y-192659000D03*
X373931245Y-195199000D03*
X373931245Y-197739000D03*
X373931245Y-200279000D03*
X373931245Y-202819000D03*
X373931245Y-205359000D03*
X373931245Y-207899000D03*
X373931245Y-210439000D03*
X373931245Y-212979000D03*
X373931245Y-215519000D03*
X373931245Y-218059000D03*
X373931245Y-220599000D03*
X373931245Y-223139000D03*
X373931245Y-225679000D03*
X373931245Y-228219000D03*
X373931245Y-230759000D03*
X373931245Y-233299000D03*
X373931245Y-235839000D03*
X373931245Y-238379000D03*
X376471245Y-159639000D03*
X376471245Y-162179000D03*
X376471245Y-164719000D03*
X376471245Y-167259000D03*
X376471245Y-169799000D03*
X376471245Y-172339000D03*
X376471245Y-174879000D03*
X376471245Y-177419000D03*
X376471245Y-179959000D03*
X376471245Y-182499000D03*
X376471245Y-185039000D03*
X376471245Y-187579000D03*
X376471245Y-190119000D03*
X376471245Y-192659000D03*
X376471245Y-195199000D03*
X376471245Y-197739000D03*
X376471245Y-200279000D03*
X376471245Y-202819000D03*
X376471245Y-205359000D03*
X376471245Y-207899000D03*
X376471245Y-210439000D03*
X376471245Y-212979000D03*
X376471245Y-215519000D03*
X376471245Y-218059000D03*
X376471245Y-220599000D03*
X376471245Y-223139000D03*
X376471245Y-225679000D03*
X376471245Y-228219000D03*
X376471245Y-230759000D03*
X376471245Y-233299000D03*
X376471245Y-235839000D03*
X376471245Y-238379000D03*
X379011245Y-159639000D03*
X379011245Y-162179000D03*
X379011245Y-164719000D03*
X379011245Y-167259000D03*
X379011245Y-169799000D03*
X379011245Y-172339000D03*
X379011245Y-174879000D03*
X379011245Y-177419000D03*
X379011245Y-179959000D03*
X379011245Y-182499000D03*
X379011245Y-185039000D03*
X379011245Y-187579000D03*
X379011245Y-190119000D03*
X379011245Y-192659000D03*
X379011245Y-195199000D03*
X379011245Y-197739000D03*
X379011245Y-200279000D03*
X379011245Y-202819000D03*
X379011245Y-205359000D03*
X379011245Y-207899000D03*
X379011245Y-210439000D03*
X379011245Y-212979000D03*
X379011245Y-215519000D03*
X379011245Y-218059000D03*
X379011245Y-220599000D03*
X379011245Y-223139000D03*
X379011245Y-225679000D03*
X379011245Y-228219000D03*
X379011245Y-230759000D03*
X379011245Y-233299000D03*
X379011245Y-235839000D03*
X379011245Y-238379000D03*
%TD*%
D12*
%TO.C,J8*%
X272331245Y-159639000D03*
D13*
X272331245Y-162179000D03*
X272331245Y-164719000D03*
X272331245Y-167259000D03*
X272331245Y-169799000D03*
X272331245Y-172339000D03*
X272331245Y-174879000D03*
X272331245Y-177419000D03*
X272331245Y-179959000D03*
X272331245Y-182499000D03*
X272331245Y-185039000D03*
X272331245Y-187579000D03*
X272331245Y-190119000D03*
X272331245Y-192659000D03*
X272331245Y-195199000D03*
X272331245Y-197739000D03*
X272331245Y-200279000D03*
X272331245Y-202819000D03*
X272331245Y-205359000D03*
X272331245Y-207899000D03*
X272331245Y-210439000D03*
X272331245Y-212979000D03*
X272331245Y-215519000D03*
X272331245Y-218059000D03*
X272331245Y-220599000D03*
X272331245Y-223139000D03*
X272331245Y-225679000D03*
X272331245Y-228219000D03*
X272331245Y-230759000D03*
X272331245Y-233299000D03*
X272331245Y-235839000D03*
X272331245Y-238379000D03*
X274871245Y-159639000D03*
X274871245Y-162179000D03*
X274871245Y-164719000D03*
X274871245Y-167259000D03*
X274871245Y-169799000D03*
X274871245Y-172339000D03*
X274871245Y-174879000D03*
X274871245Y-177419000D03*
X274871245Y-179959000D03*
X274871245Y-182499000D03*
X274871245Y-185039000D03*
X274871245Y-187579000D03*
X274871245Y-190119000D03*
X274871245Y-192659000D03*
X274871245Y-195199000D03*
X274871245Y-197739000D03*
X274871245Y-200279000D03*
X274871245Y-202819000D03*
X274871245Y-205359000D03*
X274871245Y-207899000D03*
X274871245Y-210439000D03*
X274871245Y-212979000D03*
X274871245Y-215519000D03*
X274871245Y-218059000D03*
X274871245Y-220599000D03*
X274871245Y-223139000D03*
X274871245Y-225679000D03*
X274871245Y-228219000D03*
X274871245Y-230759000D03*
X274871245Y-233299000D03*
X274871245Y-235839000D03*
X274871245Y-238379000D03*
X277411245Y-159639000D03*
X277411245Y-162179000D03*
X277411245Y-164719000D03*
X277411245Y-167259000D03*
X277411245Y-169799000D03*
X277411245Y-172339000D03*
X277411245Y-174879000D03*
X277411245Y-177419000D03*
X277411245Y-179959000D03*
X277411245Y-182499000D03*
X277411245Y-185039000D03*
X277411245Y-187579000D03*
X277411245Y-190119000D03*
X277411245Y-192659000D03*
X277411245Y-195199000D03*
X277411245Y-197739000D03*
X277411245Y-200279000D03*
X277411245Y-202819000D03*
X277411245Y-205359000D03*
X277411245Y-207899000D03*
X277411245Y-210439000D03*
X277411245Y-212979000D03*
X277411245Y-215519000D03*
X277411245Y-218059000D03*
X277411245Y-220599000D03*
X277411245Y-223139000D03*
X277411245Y-225679000D03*
X277411245Y-228219000D03*
X277411245Y-230759000D03*
X277411245Y-233299000D03*
X277411245Y-235839000D03*
X277411245Y-238379000D03*
%TD*%
D10*
%TO.C,H18*%
X457493745Y-137759000D03*
%TD*%
D11*
%TO.C,C23*%
X121455245Y-179959000D03*
X121455245Y-180919000D03*
%TD*%
D12*
%TO.C,J5*%
X211371245Y-159639000D03*
D13*
X211371245Y-162179000D03*
X211371245Y-164719000D03*
X211371245Y-167259000D03*
X211371245Y-169799000D03*
X211371245Y-172339000D03*
X211371245Y-174879000D03*
X211371245Y-177419000D03*
X211371245Y-179959000D03*
X211371245Y-182499000D03*
X211371245Y-185039000D03*
X211371245Y-187579000D03*
X211371245Y-190119000D03*
X211371245Y-192659000D03*
X211371245Y-195199000D03*
X211371245Y-197739000D03*
X211371245Y-200279000D03*
X211371245Y-202819000D03*
X211371245Y-205359000D03*
X211371245Y-207899000D03*
X211371245Y-210439000D03*
X211371245Y-212979000D03*
X211371245Y-215519000D03*
X211371245Y-218059000D03*
X211371245Y-220599000D03*
X211371245Y-223139000D03*
X211371245Y-225679000D03*
X211371245Y-228219000D03*
X211371245Y-230759000D03*
X211371245Y-233299000D03*
X211371245Y-235839000D03*
X211371245Y-238379000D03*
X213911245Y-159639000D03*
X213911245Y-162179000D03*
X213911245Y-164719000D03*
X213911245Y-167259000D03*
X213911245Y-169799000D03*
X213911245Y-172339000D03*
X213911245Y-174879000D03*
X213911245Y-177419000D03*
X213911245Y-179959000D03*
X213911245Y-182499000D03*
X213911245Y-185039000D03*
X213911245Y-187579000D03*
X213911245Y-190119000D03*
X213911245Y-192659000D03*
X213911245Y-195199000D03*
X213911245Y-197739000D03*
X213911245Y-200279000D03*
X213911245Y-202819000D03*
X213911245Y-205359000D03*
X213911245Y-207899000D03*
X213911245Y-210439000D03*
X213911245Y-212979000D03*
X213911245Y-215519000D03*
X213911245Y-218059000D03*
X213911245Y-220599000D03*
X213911245Y-223139000D03*
X213911245Y-225679000D03*
X213911245Y-228219000D03*
X213911245Y-230759000D03*
X213911245Y-233299000D03*
X213911245Y-235839000D03*
X213911245Y-238379000D03*
X216451245Y-159639000D03*
X216451245Y-162179000D03*
X216451245Y-164719000D03*
X216451245Y-167259000D03*
X216451245Y-169799000D03*
X216451245Y-172339000D03*
X216451245Y-174879000D03*
X216451245Y-177419000D03*
X216451245Y-179959000D03*
X216451245Y-182499000D03*
X216451245Y-185039000D03*
X216451245Y-187579000D03*
X216451245Y-190119000D03*
X216451245Y-192659000D03*
X216451245Y-195199000D03*
X216451245Y-197739000D03*
X216451245Y-200279000D03*
X216451245Y-202819000D03*
X216451245Y-205359000D03*
X216451245Y-207899000D03*
X216451245Y-210439000D03*
X216451245Y-212979000D03*
X216451245Y-215519000D03*
X216451245Y-218059000D03*
X216451245Y-220599000D03*
X216451245Y-223139000D03*
X216451245Y-225679000D03*
X216451245Y-228219000D03*
X216451245Y-230759000D03*
X216451245Y-233299000D03*
X216451245Y-235839000D03*
X216451245Y-238379000D03*
%TD*%
D10*
%TO.C,H30*%
X274613745Y-260259000D03*
%TD*%
D12*
%TO.C,J15*%
X414571245Y-159639000D03*
D13*
X414571245Y-162179000D03*
X414571245Y-164719000D03*
X414571245Y-167259000D03*
X414571245Y-169799000D03*
X414571245Y-172339000D03*
X414571245Y-174879000D03*
X414571245Y-177419000D03*
X414571245Y-179959000D03*
X414571245Y-182499000D03*
X414571245Y-185039000D03*
X414571245Y-187579000D03*
X414571245Y-190119000D03*
X414571245Y-192659000D03*
X414571245Y-195199000D03*
X414571245Y-197739000D03*
X414571245Y-200279000D03*
X414571245Y-202819000D03*
X414571245Y-205359000D03*
X414571245Y-207899000D03*
X414571245Y-210439000D03*
X414571245Y-212979000D03*
X414571245Y-215519000D03*
X414571245Y-218059000D03*
X414571245Y-220599000D03*
X414571245Y-223139000D03*
X414571245Y-225679000D03*
X414571245Y-228219000D03*
X414571245Y-230759000D03*
X414571245Y-233299000D03*
X414571245Y-235839000D03*
X414571245Y-238379000D03*
X417111245Y-159639000D03*
X417111245Y-162179000D03*
X417111245Y-164719000D03*
X417111245Y-167259000D03*
X417111245Y-169799000D03*
X417111245Y-172339000D03*
X417111245Y-174879000D03*
X417111245Y-177419000D03*
X417111245Y-179959000D03*
X417111245Y-182499000D03*
X417111245Y-185039000D03*
X417111245Y-187579000D03*
X417111245Y-190119000D03*
X417111245Y-192659000D03*
X417111245Y-195199000D03*
X417111245Y-197739000D03*
X417111245Y-200279000D03*
X417111245Y-202819000D03*
X417111245Y-205359000D03*
X417111245Y-207899000D03*
X417111245Y-210439000D03*
X417111245Y-212979000D03*
X417111245Y-215519000D03*
X417111245Y-218059000D03*
X417111245Y-220599000D03*
X417111245Y-223139000D03*
X417111245Y-225679000D03*
X417111245Y-228219000D03*
X417111245Y-230759000D03*
X417111245Y-233299000D03*
X417111245Y-235839000D03*
X417111245Y-238379000D03*
X419651245Y-159639000D03*
X419651245Y-162179000D03*
X419651245Y-164719000D03*
X419651245Y-167259000D03*
X419651245Y-169799000D03*
X419651245Y-172339000D03*
X419651245Y-174879000D03*
X419651245Y-177419000D03*
X419651245Y-179959000D03*
X419651245Y-182499000D03*
X419651245Y-185039000D03*
X419651245Y-187579000D03*
X419651245Y-190119000D03*
X419651245Y-192659000D03*
X419651245Y-195199000D03*
X419651245Y-197739000D03*
X419651245Y-200279000D03*
X419651245Y-202819000D03*
X419651245Y-205359000D03*
X419651245Y-207899000D03*
X419651245Y-210439000D03*
X419651245Y-212979000D03*
X419651245Y-215519000D03*
X419651245Y-218059000D03*
X419651245Y-220599000D03*
X419651245Y-223139000D03*
X419651245Y-225679000D03*
X419651245Y-228219000D03*
X419651245Y-230759000D03*
X419651245Y-233299000D03*
X419651245Y-235839000D03*
X419651245Y-238379000D03*
%TD*%
D20*
%TO.C,D2*%
X454449245Y-194918000D03*
X454449245Y-193948000D03*
%TD*%
D10*
%TO.C,H5*%
X193333745Y-137759000D03*
%TD*%
%TO.C,H25*%
X173013745Y-260259000D03*
%TD*%
%TO.C,H7*%
X233973745Y-137759000D03*
%TD*%
%TO.C,H26*%
X193333745Y-260259000D03*
%TD*%
%TO.C,H16*%
X416853745Y-137759000D03*
%TD*%
D19*
%TO.C,C22*%
X450131245Y-169771000D03*
X450131245Y-168811000D03*
%TD*%
D10*
%TO.C,H13*%
X355893745Y-137759000D03*
%TD*%
%TO.C,H27*%
X213653745Y-260259000D03*
%TD*%
D17*
%TO.C,R5*%
X119167245Y-169799000D03*
X120187245Y-169799000D03*
%TD*%
D20*
%TO.C,D3*%
X458513245Y-191620000D03*
X458513245Y-190650000D03*
%TD*%
D10*
%TO.C,H31*%
X294933745Y-260259000D03*
%TD*%
%TO.C,H6*%
X213653745Y-137759000D03*
%TD*%
D17*
%TO.C,R8*%
X122723245Y-179959000D03*
X123743245Y-179959000D03*
%TD*%
D12*
%TO.C,J16*%
X434891245Y-159639000D03*
D13*
X434891245Y-162179000D03*
X434891245Y-164719000D03*
X434891245Y-167259000D03*
X434891245Y-169799000D03*
X434891245Y-172339000D03*
X434891245Y-174879000D03*
X434891245Y-177419000D03*
X434891245Y-179959000D03*
X434891245Y-182499000D03*
X434891245Y-185039000D03*
X434891245Y-187579000D03*
X434891245Y-190119000D03*
X434891245Y-192659000D03*
X434891245Y-195199000D03*
X434891245Y-197739000D03*
X434891245Y-200279000D03*
X434891245Y-202819000D03*
X434891245Y-205359000D03*
X434891245Y-207899000D03*
X434891245Y-210439000D03*
X434891245Y-212979000D03*
X434891245Y-215519000D03*
X434891245Y-218059000D03*
X434891245Y-220599000D03*
X434891245Y-223139000D03*
X434891245Y-225679000D03*
X434891245Y-228219000D03*
X434891245Y-230759000D03*
X434891245Y-233299000D03*
X434891245Y-235839000D03*
X434891245Y-238379000D03*
X437431245Y-159639000D03*
X437431245Y-162179000D03*
X437431245Y-164719000D03*
X437431245Y-167259000D03*
X437431245Y-169799000D03*
X437431245Y-172339000D03*
X437431245Y-174879000D03*
X437431245Y-177419000D03*
X437431245Y-179959000D03*
X437431245Y-182499000D03*
X437431245Y-185039000D03*
X437431245Y-187579000D03*
X437431245Y-190119000D03*
X437431245Y-192659000D03*
X437431245Y-195199000D03*
X437431245Y-197739000D03*
X437431245Y-200279000D03*
X437431245Y-202819000D03*
X437431245Y-205359000D03*
X437431245Y-207899000D03*
X437431245Y-210439000D03*
X437431245Y-212979000D03*
X437431245Y-215519000D03*
X437431245Y-218059000D03*
X437431245Y-220599000D03*
X437431245Y-223139000D03*
X437431245Y-225679000D03*
X437431245Y-228219000D03*
X437431245Y-230759000D03*
X437431245Y-233299000D03*
X437431245Y-235839000D03*
X437431245Y-238379000D03*
X439971245Y-159639000D03*
X439971245Y-162179000D03*
X439971245Y-164719000D03*
X439971245Y-167259000D03*
X439971245Y-169799000D03*
X439971245Y-172339000D03*
X439971245Y-174879000D03*
X439971245Y-177419000D03*
X439971245Y-179959000D03*
X439971245Y-182499000D03*
X439971245Y-185039000D03*
X439971245Y-187579000D03*
X439971245Y-190119000D03*
X439971245Y-192659000D03*
X439971245Y-195199000D03*
X439971245Y-197739000D03*
X439971245Y-200279000D03*
X439971245Y-202819000D03*
X439971245Y-205359000D03*
X439971245Y-207899000D03*
X439971245Y-210439000D03*
X439971245Y-212979000D03*
X439971245Y-215519000D03*
X439971245Y-218059000D03*
X439971245Y-220599000D03*
X439971245Y-223139000D03*
X439971245Y-225679000D03*
X439971245Y-228219000D03*
X439971245Y-230759000D03*
X439971245Y-233299000D03*
X439971245Y-235839000D03*
X439971245Y-238379000D03*
%TD*%
D12*
%TO.C,J12*%
X353611245Y-159639000D03*
D13*
X353611245Y-162179000D03*
X353611245Y-164719000D03*
X353611245Y-167259000D03*
X353611245Y-169799000D03*
X353611245Y-172339000D03*
X353611245Y-174879000D03*
X353611245Y-177419000D03*
X353611245Y-179959000D03*
X353611245Y-182499000D03*
X353611245Y-185039000D03*
X353611245Y-187579000D03*
X353611245Y-190119000D03*
X353611245Y-192659000D03*
X353611245Y-195199000D03*
X353611245Y-197739000D03*
X353611245Y-200279000D03*
X353611245Y-202819000D03*
X353611245Y-205359000D03*
X353611245Y-207899000D03*
X353611245Y-210439000D03*
X353611245Y-212979000D03*
X353611245Y-215519000D03*
X353611245Y-218059000D03*
X353611245Y-220599000D03*
X353611245Y-223139000D03*
X353611245Y-225679000D03*
X353611245Y-228219000D03*
X353611245Y-230759000D03*
X353611245Y-233299000D03*
X353611245Y-235839000D03*
X353611245Y-238379000D03*
X356151245Y-159639000D03*
X356151245Y-162179000D03*
X356151245Y-164719000D03*
X356151245Y-167259000D03*
X356151245Y-169799000D03*
X356151245Y-172339000D03*
X356151245Y-174879000D03*
X356151245Y-177419000D03*
X356151245Y-179959000D03*
X356151245Y-182499000D03*
X356151245Y-185039000D03*
X356151245Y-187579000D03*
X356151245Y-190119000D03*
X356151245Y-192659000D03*
X356151245Y-195199000D03*
X356151245Y-197739000D03*
X356151245Y-200279000D03*
X356151245Y-202819000D03*
X356151245Y-205359000D03*
X356151245Y-207899000D03*
X356151245Y-210439000D03*
X356151245Y-212979000D03*
X356151245Y-215519000D03*
X356151245Y-218059000D03*
X356151245Y-220599000D03*
X356151245Y-223139000D03*
X356151245Y-225679000D03*
X356151245Y-228219000D03*
X356151245Y-230759000D03*
X356151245Y-233299000D03*
X356151245Y-235839000D03*
X356151245Y-238379000D03*
X358691245Y-159639000D03*
X358691245Y-162179000D03*
X358691245Y-164719000D03*
X358691245Y-167259000D03*
X358691245Y-169799000D03*
X358691245Y-172339000D03*
X358691245Y-174879000D03*
X358691245Y-177419000D03*
X358691245Y-179959000D03*
X358691245Y-182499000D03*
X358691245Y-185039000D03*
X358691245Y-187579000D03*
X358691245Y-190119000D03*
X358691245Y-192659000D03*
X358691245Y-195199000D03*
X358691245Y-197739000D03*
X358691245Y-200279000D03*
X358691245Y-202819000D03*
X358691245Y-205359000D03*
X358691245Y-207899000D03*
X358691245Y-210439000D03*
X358691245Y-212979000D03*
X358691245Y-215519000D03*
X358691245Y-218059000D03*
X358691245Y-220599000D03*
X358691245Y-223139000D03*
X358691245Y-225679000D03*
X358691245Y-228219000D03*
X358691245Y-230759000D03*
X358691245Y-233299000D03*
X358691245Y-235839000D03*
X358691245Y-238379000D03*
%TD*%
D10*
%TO.C,H1*%
X112053745Y-137759000D03*
%TD*%
D12*
%TO.C,J1*%
X130091245Y-159639000D03*
D13*
X130091245Y-162179000D03*
X130091245Y-164719000D03*
X130091245Y-167259000D03*
X130091245Y-169799000D03*
X130091245Y-172339000D03*
X130091245Y-174879000D03*
X130091245Y-177419000D03*
X130091245Y-179959000D03*
X130091245Y-182499000D03*
X130091245Y-185039000D03*
X130091245Y-187579000D03*
X130091245Y-190119000D03*
X130091245Y-192659000D03*
X130091245Y-195199000D03*
X130091245Y-197739000D03*
X130091245Y-200279000D03*
X130091245Y-202819000D03*
X130091245Y-205359000D03*
X130091245Y-207899000D03*
X130091245Y-210439000D03*
X130091245Y-212979000D03*
X130091245Y-215519000D03*
X130091245Y-218059000D03*
X130091245Y-220599000D03*
X130091245Y-223139000D03*
X130091245Y-225679000D03*
X130091245Y-228219000D03*
X130091245Y-230759000D03*
X130091245Y-233299000D03*
X130091245Y-235839000D03*
X130091245Y-238379000D03*
X132631245Y-159639000D03*
X132631245Y-162179000D03*
X132631245Y-164719000D03*
X132631245Y-167259000D03*
X132631245Y-169799000D03*
X132631245Y-172339000D03*
X132631245Y-174879000D03*
X132631245Y-177419000D03*
X132631245Y-179959000D03*
X132631245Y-182499000D03*
X132631245Y-185039000D03*
X132631245Y-187579000D03*
X132631245Y-190119000D03*
X132631245Y-192659000D03*
X132631245Y-195199000D03*
X132631245Y-197739000D03*
X132631245Y-200279000D03*
X132631245Y-202819000D03*
X132631245Y-205359000D03*
X132631245Y-207899000D03*
X132631245Y-210439000D03*
X132631245Y-212979000D03*
X132631245Y-215519000D03*
X132631245Y-218059000D03*
X132631245Y-220599000D03*
X132631245Y-223139000D03*
X132631245Y-225679000D03*
X132631245Y-228219000D03*
X132631245Y-230759000D03*
X132631245Y-233299000D03*
X132631245Y-235839000D03*
X132631245Y-238379000D03*
X135171245Y-159639000D03*
X135171245Y-162179000D03*
X135171245Y-164719000D03*
X135171245Y-167259000D03*
X135171245Y-169799000D03*
X135171245Y-172339000D03*
X135171245Y-174879000D03*
X135171245Y-177419000D03*
X135171245Y-179959000D03*
X135171245Y-182499000D03*
X135171245Y-185039000D03*
X135171245Y-187579000D03*
X135171245Y-190119000D03*
X135171245Y-192659000D03*
X135171245Y-195199000D03*
X135171245Y-197739000D03*
X135171245Y-200279000D03*
X135171245Y-202819000D03*
X135171245Y-205359000D03*
X135171245Y-207899000D03*
X135171245Y-210439000D03*
X135171245Y-212979000D03*
X135171245Y-215519000D03*
X135171245Y-218059000D03*
X135171245Y-220599000D03*
X135171245Y-223139000D03*
X135171245Y-225679000D03*
X135171245Y-228219000D03*
X135171245Y-230759000D03*
X135171245Y-233299000D03*
X135171245Y-235839000D03*
X135171245Y-238379000D03*
%TD*%
D14*
%TO.C,R2*%
X454449245Y-191895000D03*
X454449245Y-192915000D03*
%TD*%
D12*
%TO.C,J14*%
X394251245Y-159639000D03*
D13*
X394251245Y-162179000D03*
X394251245Y-164719000D03*
X394251245Y-167259000D03*
X394251245Y-169799000D03*
X394251245Y-172339000D03*
X394251245Y-174879000D03*
X394251245Y-177419000D03*
X394251245Y-179959000D03*
X394251245Y-182499000D03*
X394251245Y-185039000D03*
X394251245Y-187579000D03*
X394251245Y-190119000D03*
X394251245Y-192659000D03*
X394251245Y-195199000D03*
X394251245Y-197739000D03*
X394251245Y-200279000D03*
X394251245Y-202819000D03*
X394251245Y-205359000D03*
X394251245Y-207899000D03*
X394251245Y-210439000D03*
X394251245Y-212979000D03*
X394251245Y-215519000D03*
X394251245Y-218059000D03*
X394251245Y-220599000D03*
X394251245Y-223139000D03*
X394251245Y-225679000D03*
X394251245Y-228219000D03*
X394251245Y-230759000D03*
X394251245Y-233299000D03*
X394251245Y-235839000D03*
X394251245Y-238379000D03*
X396791245Y-159639000D03*
X396791245Y-162179000D03*
X396791245Y-164719000D03*
X396791245Y-167259000D03*
X396791245Y-169799000D03*
X396791245Y-172339000D03*
X396791245Y-174879000D03*
X396791245Y-177419000D03*
X396791245Y-179959000D03*
X396791245Y-182499000D03*
X396791245Y-185039000D03*
X396791245Y-187579000D03*
X396791245Y-190119000D03*
X396791245Y-192659000D03*
X396791245Y-195199000D03*
X396791245Y-197739000D03*
X396791245Y-200279000D03*
X396791245Y-202819000D03*
X396791245Y-205359000D03*
X396791245Y-207899000D03*
X396791245Y-210439000D03*
X396791245Y-212979000D03*
X396791245Y-215519000D03*
X396791245Y-218059000D03*
X396791245Y-220599000D03*
X396791245Y-223139000D03*
X396791245Y-225679000D03*
X396791245Y-228219000D03*
X396791245Y-230759000D03*
X396791245Y-233299000D03*
X396791245Y-235839000D03*
X396791245Y-238379000D03*
X399331245Y-159639000D03*
X399331245Y-162179000D03*
X399331245Y-164719000D03*
X399331245Y-167259000D03*
X399331245Y-169799000D03*
X399331245Y-172339000D03*
X399331245Y-174879000D03*
X399331245Y-177419000D03*
X399331245Y-179959000D03*
X399331245Y-182499000D03*
X399331245Y-185039000D03*
X399331245Y-187579000D03*
X399331245Y-190119000D03*
X399331245Y-192659000D03*
X399331245Y-195199000D03*
X399331245Y-197739000D03*
X399331245Y-200279000D03*
X399331245Y-202819000D03*
X399331245Y-205359000D03*
X399331245Y-207899000D03*
X399331245Y-210439000D03*
X399331245Y-212979000D03*
X399331245Y-215519000D03*
X399331245Y-218059000D03*
X399331245Y-220599000D03*
X399331245Y-223139000D03*
X399331245Y-225679000D03*
X399331245Y-228219000D03*
X399331245Y-230759000D03*
X399331245Y-233299000D03*
X399331245Y-235839000D03*
X399331245Y-238379000D03*
%TD*%
D10*
%TO.C,H33*%
X335573745Y-260259000D03*
%TD*%
%TO.C,H19*%
X437131245Y-260259000D03*
%TD*%
%TO.C,H9*%
X274613745Y-137759000D03*
%TD*%
D20*
%TO.C,D1*%
X450639245Y-197970000D03*
X450639245Y-197000000D03*
%TD*%
M02*
